<?xml version="1.0" encoding="UTF-8"?>
<svg version="1.1" xmlns="http://www.w3.org/2000/svg" width="1024" height="1024">
<path d="M0 0 C337.92 0 675.84 0 1024 0 C1024 337.92 1024 675.84 1024 1024 C686.08 1024 348.16 1024 0 1024 C0 686.08 0 348.16 0 0 Z " fill="#FDFDFD" transform="translate(0,0)"/>
<path d="M0 0 C0 53.79 0 107.58 0 163 C-7.26 163.66 -14.52 164.32 -22 165 C-25.98126502 165.80253794 -29.60374492 166.57854292 -33.4375 167.75 C-34.3452417 168.01385498 -35.2529834 168.27770996 -36.18823242 168.54956055 C-59.96950278 175.63571788 -79.94288411 186.95802009 -98 204 C-98.66386719 204.61101562 -99.32773437 205.22203125 -100.01171875 205.8515625 C-112.26938524 217.53737031 -120.6130391 231.56078718 -128.86767578 246.20263672 C-129.24134277 246.7957666 -129.61500977 247.38889648 -130 248 C-130.33 248 -130.66 248 -131 248 C-131.1870735 223.67797744 -131.32804936 199.35606307 -131.41449738 175.03346539 C-131.45570785 163.7394318 -131.51186951 152.44584584 -131.60351562 141.15209961 C-131.68337792 131.30578629 -131.73489531 121.45979723 -131.75270796 111.61316901 C-131.76311676 106.40165893 -131.78749204 101.19107627 -131.84584045 95.97986412 C-131.90037982 91.06878469 -131.91684512 86.1590094 -131.90486145 81.24765587 C-131.90705181 79.45097755 -131.92282541 77.65425299 -131.9536438 75.85783768 C-132.1387976 64.50255603 -131.17698715 57.60050759 -123 49 C-121.56129112 47.31353053 -120.12365049 45.62614865 -118.6875 43.9375 C-97.5879342 21.22317151 -67.86055925 6.05595922 -37 2 C-34.09819432 1.90433608 -31.26434266 1.91384834 -28.3671875 2.08984375 C-17.49213054 1.67709406 -15.18928591 0 0 0 Z " fill="#2C95D3" transform="translate(646,280)"/>
<path d="M0 0 C23.10272727 0 23.10272727 0 33.5625 1.8125 C34.62017578 1.97814453 35.67785156 2.14378906 36.76757812 2.31445312 C45.60603658 3.75580173 54.24455754 5.80745049 62.625 9 C65.99868225 10.2705451 69.36780294 11.43831783 72.8125 12.5 C76.68736338 13.76638519 79.6455811 15.6664912 83 18 C84.65478617 18.68138254 86.3096059 19.36268418 87.96484375 20.04296875 C104.26039885 27.70594572 123.28372433 43.31597027 131 60 C132.65271065 66.14029526 132.27124787 72.54625447 132.13525391 78.84716797 C132.13242692 80.70142462 132.13402868 82.55569243 132.13967896 84.40994263 C132.142527 89.40169271 132.08408999 94.39099843 132.01393938 99.38218451 C131.95106533 104.61372035 131.94552393 109.84532357 131.9336853 115.07717896 C131.9027089 124.96538635 131.8207922 134.85247695 131.72019041 144.74019444 C131.60808674 156.00495894 131.55335162 167.26977916 131.50323606 178.53496337 C131.39894834 201.6905927 131.22326337 224.84523354 131 248 C127.95580762 244.27958345 125.55702786 240.59819562 123.25 236.375 C118.19788461 227.33186809 112.31881019 219.14809755 105.25 211.55859375 C104 210 104 210 104 208 C103.1646875 207.6596875 103.1646875 207.6596875 102.3125 207.3125 C99.35257841 205.6325445 97.38344405 203.42880975 95 201 C83.70477845 189.90389293 71.00723549 182.59736802 56.83251953 175.87109375 C55.24456087 175.11625276 53.66624912 174.34118077 52.08984375 173.5625 C45.78545754 170.65976102 39.29143613 168.91364475 32.5625 167.3125 C31.7360498 167.10987549 30.90959961 166.90725098 30.05810547 166.69848633 C20.03001124 164.45577856 10.44497616 163.99475963 0 163 C0 109.21 0 55.42 0 0 Z " fill="#36A8DE" transform="translate(378,280)"/>
<path d="M0 0 C1.72657837 0.29414795 1.72657837 0.29414795 3.48803711 0.59423828 C12.58592178 2.29150276 20.87866668 5.27884699 29.33154297 9.00585938 C33.24088953 10.38083074 36.23564636 8.36598401 39.90625 6.85546875 C50.02219676 4.01832822 61.13137591 4.60522862 71.5625 4.5625 C72.81740234 4.541875 74.07230469 4.52125 75.36523438 4.5 C84.32558231 4.46303106 94.6969682 4.59706752 102.76928711 8.97558594 C105.20182274 10.07264319 106.15330489 9.74343256 108.625 8.8125 C110.23642 8.04777891 111.83702988 7.26009693 113.4296875 6.45703125 C120.29673889 3.29226577 127.34890637 1.85479849 134.75 0.5 C135.43276001 0.37175842 136.11552002 0.24351685 136.81896973 0.11138916 C166.06782378 -5.33669168 166.06782378 -5.33669168 178.625 1.8125 C187.47469695 8.318961 193.03130399 18.84401362 195.22265625 29.54296875 C196.46396843 39.63013668 197.48749714 50.96878983 191.625 59.8125 C183.32714545 69.92551023 170.03177501 72.52918392 157.75 74.5625 C156.56664062 74.77003906 155.38328125 74.97757813 154.1640625 75.19140625 C150.98654948 75.74603972 147.80694961 76.28400648 144.625 76.8125 C143.58682129 76.99498291 142.54864258 77.17746582 141.47900391 77.36547852 C137.93826474 77.92006307 134.4497666 78.00385028 130.875 78 C129.8226416 77.99987915 129.8226416 77.99987915 128.74902344 77.99975586 C122.51031202 77.931632 116.56024642 77.15511349 110.6328125 75.1328125 C107.96102569 74.70657414 106.6540943 75.43138827 104.25 76.625 C91.19564446 83.01379237 76.89629828 83.27850158 62.625 82.8125 C61.94228027 82.79316406 61.25956055 82.77382813 60.55615234 82.75390625 C39.17962149 82.07001818 39.17962149 82.07001818 30.9375 76.5 C26.2612423 74.11775551 23.43653026 75.34183793 18.625 76.8125 C-0.00166494 81.32145896 -29.02839144 77.29767821 -45.7421875 67.85546875 C-52.86214287 63.30755467 -56.46635267 57.94916357 -58.9921875 49.828125 C-61.31053901 37.62129458 -58.32679847 22.04535348 -51.64453125 11.52734375 C-38.54445415 -6.16783732 -19.36572264 -3.3869056 0 0 Z " fill="#E8AB29" transform="translate(443.375,618.1875)"/>
<path d="M0 0 C8.270625 -0.061875 16.54125 -0.12375 25.0625 -0.1875 C27.64070557 -0.21481201 30.21891113 -0.24212402 32.87524414 -0.27026367 C51.89175816 -0.38982287 71.75279497 0.23118917 86.484375 14.21875 C96.39773136 25.86949871 100.96553149 38.8375796 100 54 C98.06473209 67.6452788 92.8451337 79.24462628 82 88 C79.11227939 89.97580884 76.18092709 91.54923934 73 93 C72.195625 93.36867188 71.39125 93.73734375 70.5625 94.1171875 C60.63581913 98.36704775 51.15929211 99.29573698 40.4296875 99.1953125 C39.39787354 99.19329834 38.36605957 99.19128418 37.30297852 99.18920898 C33.49360633 99.17884144 29.68429812 99.15091983 25.875 99.125 C17.33625 99.08375 8.7975 99.0425 0 99 C0 66.33 0 33.66 0 0 Z " fill="#179545" transform="translate(605,751)"/>
<path d="M0 0 C14.2621875 -0.0928125 14.2621875 -0.0928125 28.8125 -0.1875 C31.7925708 -0.21481201 34.7726416 -0.24212402 37.84301758 -0.27026367 C40.23518469 -0.27903487 42.62735633 -0.28667731 45.01953125 -0.29296875 C46.23717163 -0.30831665 47.45481201 -0.32366455 48.70935059 -0.33947754 C60.20037465 -0.34295932 70.85562969 1.61859838 80 9 C85.82760427 16.07350588 86.79954701 23.01080724 86 32 C84.30401098 38.16073119 80.30785423 42.5485874 75 46 C74.34 46 73.68 46 73 46 C73 46.66 73 47.32 73 48 C73.57878906 48.12246094 74.15757812 48.24492188 74.75390625 48.37109375 C81.4547187 50.24732124 85.6873596 54.20441639 89.08984375 60.1328125 C92.1969515 66.50705072 91.83500171 74.05293512 89.9375 80.75 C83.75450591 91.12147395 76.71391323 94.88274456 65.17163086 98.05078125 C58.8167749 99.43400552 52.47081854 99.24833439 45.99609375 99.1953125 C44.24045105 99.19229126 44.24045105 99.19229126 42.44934082 99.18920898 C38.1120202 99.17881077 33.77475582 99.15088859 29.4375 99.125 C19.723125 99.08375 10.00875 99.0425 0 99 C0 66.33 0 33.66 0 0 Z " fill="#1E58AC" transform="translate(192,751)"/>
<path d="M0 0 C6.93 0 13.86 0 21 0 C27.60902556 8.48738019 27.60902556 8.48738019 29.38671875 12.5703125 C32.17086737 18.55529997 35.65487367 23.97521667 39.25 29.5 C40.1006604 30.84118896 40.1006604 30.84118896 40.96850586 32.20947266 C47.65150945 43.25943653 47.65150945 43.25943653 56 53 C56.26627197 52.27578857 56.53254395 51.55157715 56.80688477 50.80541992 C58.0035955 47.99154576 59.39689594 45.65556561 61.08984375 43.11328125 C61.70424316 42.18322266 62.31864258 41.25316406 62.95166016 40.29492188 C63.93465088 38.81862305 63.93465088 38.81862305 64.9375 37.3125 C70.25797672 29.25062944 75.45642357 21.14171137 80.40991211 12.84887695 C80.81346924 12.17687256 81.21702637 11.50486816 81.6328125 10.8125 C81.97199707 10.24144531 82.31118164 9.67039062 82.66064453 9.08203125 C84.65802092 5.97710492 86.85413031 3.00421757 89 0 C95.93 0 102.86 0 110 0 C110 32.67 110 65.34 110 99 C102.74 99 95.48 99 88 99 C87.67 78.87 87.34 58.74 87 38 C83.04 44.27 79.08 50.54 75 57 C73.7934375 58.90265625 72.586875 60.8053125 71.34375 62.765625 C70.8590625 63.53003906 70.374375 64.29445313 69.875 65.08203125 C68.92816725 66.57490676 67.98018319 68.06705249 67.03125 69.55859375 C64.23243165 73.97738033 61.55872347 78.43774777 59 83 C56.07383442 83.29752417 53.85046327 83.51574002 51 83 C48.99877284 80.88469637 47.9492092 79.4329602 46.625 76.9375 C45.86791985 75.64073719 45.10873258 74.34520273 44.34765625 73.05078125 C43.96367676 72.37869629 43.57969727 71.70661133 43.18408203 71.01416016 C41.28520356 67.78410915 39.17063653 64.72287199 37.0625 61.625 C31.89665977 53.84435176 26.9498721 45.91979536 22 38 C21.67 58.13 21.34 78.26 21 99 C14.07 99 7.14 99 0 99 C0 66.33 0 33.66 0 0 Z " fill="#1A9847" transform="translate(722,751)"/>
<path d="M0 0 C8.25 -0.0825 16.5 -0.165 25 -0.25 C27.56910156 -0.28641602 30.13820313 -0.32283203 32.78515625 -0.36035156 C49.56624184 -0.4992305 65.71370462 -0.36912465 78.73046875 11.58984375 C84.5837874 17.73221517 87.19532187 24.89322781 87.5 33.3125 C87.120136 43.39076682 84.74466489 52.64927802 77.55078125 59.9921875 C68.72624127 66.93830319 59.2505677 70.1780075 48.07421875 70.09765625 C46.95283257 70.09553383 46.95283257 70.09553383 45.80879211 70.09336853 C43.43498635 70.08779764 41.06127697 70.0752506 38.6875 70.0625 C37.07226699 70.05748123 35.4570325 70.05291899 33.84179688 70.04882812 C29.89446478 70.03869117 25.94733953 70.0191103 22 70 C22 79.57 22 89.14 22 99 C14.74 99 7.48 99 0 99 C0 66.33 0 33.66 0 0 Z " fill="#108A49" transform="translate(409,751)"/>
<path d="M0 0 C0.33 0 0.66 0 1 0 C1 48.18 1 96.36 1 146 C3.64 145.67 6.28 145.34 9 145 C39.69230434 142.49515285 74.21505174 152.93551182 98.4375 172.0625 C99.9625688 173.37007617 101.48336556 174.68265029 103 176 C104.85415216 177.45835177 106.70831939 178.9166844 108.5625 180.375 C115.22476815 185.82766485 120.91728463 192.05891682 126 199 C125.67 199.66 125.34 200.32 125 201 C124.63132812 200.62230469 124.26265625 200.24460937 123.8828125 199.85546875 C107.09573895 183.92640118 84.14660637 175.25167688 62 170 C60.7521875 169.6803125 59.504375 169.360625 58.21875 169.03125 C35.09221949 163.95469452 10.0633156 166.2804676 -12.76879883 171.55932617 C-14.52043083 171.9641346 -14.52043083 171.9641346 -16.30744934 172.37712097 C-17.64026192 172.68544609 -17.64026192 172.68544609 -19 173 C-19.25738651 153.24158482 -19.4511435 133.4835115 -19.56993389 113.72376537 C-19.62656615 104.54810103 -19.70372068 95.37348049 -19.82983398 86.19848633 C-19.93975067 78.19798874 -20.01050456 70.19824729 -20.03497344 62.19701558 C-20.04926981 57.96305994 -20.0826657 53.73126662 -20.16303062 49.49800682 C-20.23820005 45.50574211 -20.26063251 41.51651056 -20.24418449 37.52360535 C-20.24718904 36.06546798 -20.26878486 34.60721994 -20.31126022 33.14969826 C-20.47880518 27.09915485 -20.61823144 21.59382711 -16.61219215 16.77297401 C-13.93955236 13.94888043 -10.97690319 11.49789658 -8 9 C-6.5947761 7.48583128 -5.21246515 5.94934052 -3.875 4.375 C-3.33617187 3.74335938 -2.79734375 3.11171875 -2.2421875 2.4609375 C-1.83226562 1.97882813 -1.42234375 1.49671875 -1 1 C-0.67 0.67 -0.34 0.34 0 0 Z " fill="#258ACD" transform="translate(365,309)"/>
<path d="M0 0 C7.26 0 14.52 0 22 0 C22.33 15.18 22.66 30.36 23 46 C28.74402803 40.25597197 34.13282285 34.51165041 39.39831543 28.36865234 C63.94460402 -0.15359256 63.94460402 -0.15359256 75.53125 -1.9609375 C81.49213416 -2.1835259 87.23216118 -1.50970278 93 0 C91.61517189 3.12126015 90.01545632 5.22529237 87.59179688 7.61938477 C86.897677 8.31012589 86.20355713 9.000867 85.48840332 9.71253967 C84.73941772 10.44806564 83.99043213 11.18359161 83.21875 11.94140625 C82.44946167 12.70549301 81.68017334 13.46957977 80.88757324 14.25682068 C78.42974543 16.69684018 75.96534007 19.13007277 73.5 21.5625 C71.0355324 23.99934981 68.57253337 26.43763846 66.11242676 28.87889099 C64.58156142 30.39750147 63.0480308 31.91343077 61.51159668 33.42640686 C60.81747681 34.11399582 60.12335693 34.80158478 59.40820312 35.51000977 C58.49125671 36.41457664 58.49125671 36.41457664 57.55578613 37.3374176 C55.79991505 39.12301629 55.79991505 39.12301629 54 42 C53.34 42 52.68 42 52 42 C54.65519721 46.8790447 58.1375808 50.94930728 61.6875 55.1875 C62.95624878 56.71441214 64.22448128 58.24175342 65.4921875 59.76953125 C66.10030273 60.50123535 66.70841797 61.23293945 67.33496094 61.98681641 C69.97989369 65.18478055 72.56223439 68.43116906 75.14453125 71.6796875 C77.24267341 74.30346949 79.36927641 76.90261539 81.5 79.5 C82.24121094 80.40621094 82.98242188 81.31242188 83.74609375 82.24609375 C85.27655266 84.11606521 86.81053302 85.98315902 88.34765625 87.84765625 C89.07855469 88.74355469 89.80945313 89.63945313 90.5625 90.5625 C91.22378906 91.36816406 91.88507813 92.17382812 92.56640625 93.00390625 C94 95 94 95 94 97 C94.66 97 95.32 97 96 97 C96 97.66 96 98.32 96 99 C91.83454875 99.26326588 87.6712488 99.42182084 83.5 99.5625 C82.32695312 99.63791016 81.15390625 99.71332031 79.9453125 99.79101562 C71.36292053 100.00798621 71.36292053 100.00798621 67.55786133 97.19384766 C65.49729105 94.89676271 63.73596314 92.54906487 62 90 C61.07427986 88.83225646 60.14150746 87.67004032 59.19921875 86.515625 C58.35959159 85.42892388 57.52236064 84.34036728 56.6875 83.25 C52.44031486 77.76735237 48.05192105 72.43133533 43.52807617 67.17480469 C41.52824909 64.84446148 39.70683458 62.56025186 38 60 C31.85813703 62.14029463 27.6129719 65.58100666 24 71 C22.81249416 75.88417673 22.82738299 80.55601737 22.9375 85.5625 C22.93041016 86.85736328 22.92332031 88.15222656 22.91601562 89.48632812 C22.90431332 92.65765406 22.94668965 95.82910058 23 99 C15.41 99 7.82 99 0 99 C0 66.33 0 33.66 0 0 Z " fill="#1E5AAC" transform="translate(300,751)"/>
<path d="M0 0 C4.38051894 3.75473052 7.99419616 6.89460889 11.6875 11.125 C14.72402134 14.61365936 14.72402134 14.61365936 18.10201645 17.75485611 C20.61520176 20.72772837 20.493678 22.42820874 20.48101807 26.28948975 C20.48651672 27.58235397 20.49201538 28.8752182 20.49768066 30.20726013 C20.48352489 31.63785162 20.46898566 33.06843935 20.45410156 34.49902344 C20.45297315 36.00698313 20.45360683 37.51494503 20.45587158 39.02290344 C20.45701991 43.11570365 20.43349172 47.20803557 20.40557575 51.30072689 C20.38058172 55.57816638 20.37822168 59.85561643 20.37347412 64.13311768 C20.36103845 72.2327198 20.32820889 80.33210613 20.28807616 88.43161321 C20.24337681 97.65278178 20.22137604 106.87396062 20.20129442 116.09521055 C20.15947674 135.06359607 20.08911324 154.03178069 20 173 C18.25581535 172.58835602 18.25581535 172.58835602 16.47639465 172.168396 C14.93324202 171.80462853 13.39008484 171.44088036 11.84692383 171.07714844 C11.08261299 170.8967099 10.31830215 170.71627136 9.53083038 170.53036499 C-1.1301063 168.01862129 -11.0893326 166.67405277 -22.05004883 166.73925781 C-24.1671267 166.74989761 -26.28333973 166.73934692 -28.40039062 166.7265625 C-41.01279095 166.71284114 -53.54565311 167.80166471 -65.8125 170.875 C-66.87682251 171.13651855 -66.87682251 171.13651855 -67.96264648 171.40332031 C-83.03298149 175.20818142 -96.58784251 182.09312734 -109.75 190.25 C-110.75099731 190.8680249 -110.75099731 190.8680249 -111.7722168 191.49853516 C-115.27552474 193.7200133 -118.08168369 196.02713572 -121 199 C-121.66 199 -122.32 199 -123 199 C-123 199.66 -123 200.32 -123 201 C-123.66 201 -124.32 201 -125 201 C-123.68540518 198.12412774 -122.24593563 195.95542366 -120.09375 193.64453125 C-119.23330078 192.71761475 -119.23330078 192.71761475 -118.35546875 191.77197266 C-117.74316406 191.12534668 -117.13085938 190.4787207 -116.5 189.8125 C-115.86707031 189.1426709 -115.23414063 188.4728418 -114.58203125 187.78271484 C-92.07975366 164.16787535 -58.84784096 146.15765913 -25.60595703 144.91015625 C-22.90307523 144.86611744 -20.20319346 144.86352959 -17.5 144.875 C-16.13294922 144.86919922 -16.13294922 144.86919922 -14.73828125 144.86328125 C-13.39830078 144.86521484 -13.39830078 144.86521484 -12.03125 144.8671875 C-11.23267578 144.86831543 -10.43410156 144.86944336 -9.61132812 144.87060547 C-6.3894623 145.0302529 -3.19339765 145.54380034 0 146 C0 97.82 0 49.64 0 0 Z " fill="#217DC5" transform="translate(658,309)"/>
<path d="M0 0 C2.36814081 2.11810901 3.48516657 3.74484016 4.39453125 6.78125 C4.6251123 7.53220947 4.85569336 8.28316895 5.09326172 9.05688477 C5.44928467 10.26622681 5.44928467 10.26622681 5.8125 11.5 C6.33164283 13.20714942 6.85118648 14.91417699 7.37109375 16.62109375 C7.63647949 17.50265137 7.90186523 18.38420898 8.17529297 19.29248047 C9.00184152 22.00604571 9.85657064 24.70896903 10.72265625 27.41015625 C10.99940186 28.27382812 11.27614746 29.1375 11.5612793 30.02734375 C12.09677132 31.69567533 12.63336281 33.36365447 13.17114258 35.03125 C15 40.77750897 15 40.77750897 15 43 C30.51 43 46.02 43 62 43 C60.89369826 46.31890521 60.40659137 46.69041848 57.640625 48.56640625 C56.94291992 49.04730713 56.24521484 49.52820801 55.52636719 50.02368164 C54.77516602 50.5314917 54.02396484 51.03930176 53.25 51.5625 C46.57454563 56.16225689 40.09838009 60.92109653 33.734375 65.94140625 C31.23475869 67.82326025 28.71443444 69.44960223 26 71 C27.54073589 80.35579387 30.55707205 89.06122631 33.625 98 C34.39854847 100.26532322 35.17028299 102.53122599 35.93856812 104.79833984 C36.41378257 106.19953583 36.89220116 107.59965017 37.37417603 108.99853516 C39 113.77666691 39 113.77666691 39 116 C38.34 116 37.68 116 37 116 C37 115.34 37 114.68 37 114 C36.35289062 113.79632813 35.70578125 113.59265625 35.0390625 113.3828125 C30.73920962 111.42632417 27.16350725 108.67511516 23.375 105.875 C22.57755371 105.29403564 21.78010742 104.71307129 20.95849609 104.11450195 C17.45547504 101.55940308 13.96845813 98.98582942 10.515625 96.36328125 C9.56171875 95.64527344 8.6078125 94.92726563 7.625 94.1875 C6.81289063 93.56230469 6.00078125 92.93710938 5.1640625 92.29296875 C2.84785092 90.65806684 2.84785092 90.65806684 -1 91 C-2.90370436 91.98281714 -2.90370436 91.98281714 -4.73046875 93.421875 C-5.44348145 93.9475708 -6.15649414 94.4732666 -6.89111328 95.01489258 C-7.6489209 95.58747803 -8.40672852 96.16006348 -9.1875 96.75 C-10.7922618 97.93715414 -12.39775001 99.12332688 -14.00390625 100.30859375 C-14.8252002 100.91815918 -15.64649414 101.52772461 -16.49267578 102.15576172 C-20.4954943 105.09999649 -24.5585245 107.95715812 -28.625 110.8125 C-29.36516357 111.33360352 -30.10532715 111.85470703 -30.86791992 112.39160156 C-32.57791555 113.59539278 -34.28884401 114.79785877 -36 116 C-37.38081523 113.23836954 -36.42391612 111.63774323 -35.51312256 108.82041931 C-35.27676086 108.11526688 -35.04039917 107.41011444 -34.796875 106.68359375 C-34.55841858 105.95310318 -34.31996216 105.22261261 -34.07427979 104.46998596 C-33.30646528 102.12347823 -32.52836467 99.78052668 -31.75 97.4375 C-31.24021003 95.88498724 -30.7310876 94.3322551 -30.22265625 92.77929688 C-28.82471396 88.5163241 -27.41507618 84.25731252 -26 80 C-25.66033203 78.97793457 -25.32066406 77.95586914 -24.97070312 76.90283203 C-24.31530806 74.93471921 -23.65800112 72.96724307 -23 71 C-23.73863281 70.72994141 -24.47726562 70.45988281 -25.23828125 70.18164062 C-27.8883278 69.04778054 -29.88555268 67.81049308 -32.1875 66.09375 C-33.35091919 65.23172974 -33.35091919 65.23172974 -34.5378418 64.35229492 C-35.350354 63.7410376 -36.16286621 63.12978027 -37 62.5 C-38.25453979 61.56474487 -38.25453979 61.56474487 -39.53442383 60.6105957 C-42.02819158 58.74726009 -44.51511794 56.87516329 -47 55 C-47.71075684 54.46552246 -48.42151367 53.93104492 -49.15380859 53.38037109 C-57.02888521 47.44836928 -57.02888521 47.44836928 -60 45 C-60 44.67 -60 44.34 -60 44 C-44.82 44 -29.64 44 -14 44 C-13.67 41.69 -13.34 39.38 -13 37 C-12.16796875 34.62109375 -12.16796875 34.62109375 -11.1875 32.4375 C-9.46463387 28.35113521 -8.17478329 24.27658265 -7 20 C-5.57558726 14.83720757 -3.91291262 9.92104784 -1.83203125 4.98828125 C-1.14823418 3.35423098 -0.56015165 1.68045495 0 0 Z " fill="#EFB327" transform="translate(511,132)"/>
<path d="M0 0 C0.66 0 1.32 0 2 0 C2.33 45.87 2.66 91.74 3 139 C7.62 137.35 12.24 135.7 17 134 C54.38476569 123.26182262 96.96584833 127.12925208 131.11376953 145.93359375 C141.68856495 151.91219929 150.92745679 158.93719166 160 167 C156.26046274 167 154.95026875 165.87451608 151.8125 163.875 C139.75848304 156.69480939 126.59092928 153.08816944 113 150 C111.68708984 149.67708984 111.68708984 149.67708984 110.34765625 149.34765625 C73.04551141 140.36629624 26.36538361 148.92292392 -7.50390625 166.2421875 C-11 168 -11 168 -13 168 C-13.28095896 148.27619017 -13.49224024 128.55278918 -13.62174606 108.82738972 C-13.68349069 99.66736569 -13.76758767 90.50858858 -13.90527344 81.34936523 C-14.02529605 73.3612988 -14.10239478 65.3741357 -14.12906194 57.38519257 C-14.14463963 53.15881222 -14.18094646 48.93501483 -14.26876068 44.70946693 C-14.85268501 15.52889071 -14.85268501 15.52889071 -8.67351151 8.09900951 C-6.27413969 5.75534146 -3.77614533 3.88198489 -1 2 C-0.67 1.34 -0.34 0.68 0 0 Z " fill="#1E75C0" transform="translate(333,357)"/>
<path d="M0 0 C6.73535792 5.61279826 6.73535792 5.61279826 9.75 9.1875 C11.45766558 11.19900698 13.13323413 13.13323413 15 15 C15.24609566 17.63555336 15.24609566 17.63555336 15.24050903 21.04898071 C15.24463303 22.98415306 15.24463303 22.98415306 15.24884033 24.9584198 C15.24176155 26.39627167 15.23449192 27.83412261 15.22705078 29.27197266 C15.2264869 30.77963758 15.22680278 32.28730305 15.22793579 33.79496765 C15.22851119 37.89600589 15.2167267 41.99692787 15.20278788 46.09793901 C15.19031163 50.38074694 15.18911248 54.66355733 15.18673706 58.94638062 C15.18051314 67.06013791 15.16409001 75.17384151 15.14403808 83.28757513 C15.12170742 92.52323027 15.11069279 101.75888794 15.10064721 110.99456334 C15.07972455 129.99640604 15.0445309 148.99819871 15 168 C13.40426161 167.36418492 11.80876863 166.72775389 10.21337891 166.09106445 C9.32486237 165.73671829 8.43634583 165.38237213 7.52090454 165.01728821 C5.53327702 164.21519912 3.55728109 163.38428587 1.5859375 162.54296875 C-23.8516413 151.80472076 -49.85570118 146.67516547 -77.375 146.5625 C-78.16666565 146.55614532 -78.9583313 146.54979065 -79.77398682 146.54324341 C-95.49833172 146.46467678 -110.6466344 148.47954234 -125.6875 153.1875 C-126.65155762 153.48503174 -127.61561523 153.78256348 -128.60888672 154.08911133 C-139.0067716 157.43680345 -148.57343274 161.93609325 -157 169 C-157.66 168.67 -158.32 168.34 -159 168 C-146.62630688 156.13135558 -133.64657709 147.05197841 -118 140 C-117.07018311 139.57460938 -117.07018311 139.57460938 -116.12158203 139.140625 C-79.71629135 122.72388132 -36.92687294 126.69104235 0 139 C0 93.13 0 47.26 0 0 Z " fill="#1A69B8" transform="translate(689,357)"/>
<path d="M0 0 C0.64404785 0.25281738 1.2880957 0.50563477 1.95166016 0.76611328 C5.32656401 2.18239191 6.66575237 2.93612855 8.75 6.0625 C7.90819174 8.75569776 7.00214747 11.18154267 5.875 13.75 C5.57980469 14.45189453 5.28460937 15.15378906 4.98046875 15.87695312 C4.24923347 17.61068839 3.50118724 19.33731573 2.75 21.0625 C-3.12655886 20.27418113 -8.28894619 18.30219574 -13.8125 16.21875 C-22.15315524 13.41325687 -30.94251774 12.93831864 -39.25 16.0625 C-42.69394572 18.11421234 -43.95503346 19.19603579 -45.25 23 C-45.25 26.86889228 -44.84133828 28.1662984 -42.25 31.0625 C-35.71502391 34.79287461 -28.51903272 36.40465043 -21.25 38.0625 C-9.69139574 40.6986729 2.77068088 43.69088795 9.71484375 54.140625 C12.96292699 60.17102859 13.70743206 67.0267421 12.1328125 73.6640625 C9.50244774 82.11381831 5.39670858 87.33521614 -2.23828125 91.81640625 C-19.34245955 100.31728528 -38.93808905 99.70420085 -56.86328125 93.890625 C-62.05037441 91.79770073 -66.77336977 89.41997267 -71.25 86.0625 C-69.5841708 79.89893195 -66.37194714 74.57990344 -63.25 69.0625 C-62.42628906 69.48208984 -62.42628906 69.48208984 -61.5859375 69.91015625 C-47.73257468 76.74417302 -32.68881827 82.0525494 -17.4609375 77.0390625 C-14.27793328 75.63314191 -12.82990203 74.15049033 -11.25 71.0625 C-10.66345035 67.46988336 -10.68356833 65.85550434 -12.8125 62.875 C-17.85216434 59.12755728 -23.13581507 57.71993912 -29.25 56.6875 C-41.83633685 54.35347349 -54.43558695 51.05623971 -63.625 41.625 C-68.38482182 34.11912713 -69.19848427 27.94376179 -68.25 19.0625 C-66.29852182 11.34951482 -61.56376842 5.63982281 -54.78515625 1.58984375 C-37.71733287 -7.21355989 -17.77361028 -7.02257575 0 0 Z " fill="#169146" transform="translate(576.25,753.9375)"/>
<path d="M0 0 C0.54527344 0.19335938 1.09054688 0.38671875 1.65234375 0.5859375 C2.40644531 0.84632813 3.16054687 1.10671875 3.9375 1.375 C5.03384766 1.75785156 5.03384766 1.75785156 6.15234375 2.1484375 C12.77418109 4.12863028 19.08943412 5.17878155 25.97265625 5.67578125 C27.06917763 5.75560242 27.06917763 5.75560242 28.18785095 5.83703613 C31.2357971 6.05386445 34.28373574 6.26503581 37.33374023 6.45092773 C57.96634085 7.73809506 73.91429137 13.82181568 90.25 26.75 C104.52623569 37.80216267 118.87002039 46.86833578 135 55 C134.67 57.31 134.34 59.62 134 62 C102.91302539 67.66498515 69.98096843 64.63391121 43.1875 46.75 C26.79499778 34.61204034 8.41585607 19.07912825 0 0 Z " fill="#269543" transform="translate(242,598)"/>
<path d="M0 0 C-6.62645201 9.03709023 -13.23996234 17.88968286 -21 26 C-21.804375 26.87914062 -22.60875 27.75828125 -23.4375 28.6640625 C-36.06315174 42.00366478 -51.55209982 51.26625102 -68.875 57.1875 C-69.91696533 57.54485229 -69.91696533 57.54485229 -70.97998047 57.90942383 C-82.93275484 61.80219967 -94.43965707 63.49153926 -107 63.375 C-108.87558594 63.39240234 -108.87558594 63.39240234 -110.7890625 63.41015625 C-119.59940108 63.38279495 -127.47179422 62.16326021 -136 60 C-136 58.35 -136 56.7 -136 55 C-134.34677734 54.12601563 -134.34677734 54.12601563 -132.66015625 53.234375 C-118.99742702 45.89785555 -106.61145445 37.38115981 -94.37280273 27.88208008 C-75.01122781 12.86826134 -57.37067728 6.42371601 -32.875 5.5625 C-23.33484634 5.22461122 -15.39021556 3.72323834 -6.5 0.25 C-3 -1 -3 -1 0 0 Z " fill="#279444" transform="translate(782,599)"/>
<path d="M0 0 C0.22849559 5.45533226 -0.50193977 10.01347436 -2 15.25 C-2.21857666 16.02214844 -2.43715332 16.79429687 -2.66235352 17.58984375 C-10.19427827 43.08803944 -23.09964843 65.76738118 -46.8125 79.125 C-59.18053546 85.74630404 -75.9003162 91 -90 91 C-88.47868224 87.53521872 -86.4151559 85.03221603 -83.9375 82.1875 C-77.46854599 74.38335388 -72.59959451 65.72535602 -67.71484375 56.87109375 C-56.22120468 36.04087135 -44.19480927 22.58122737 -21.91821289 13.56689453 C-16.7056459 11.38432698 -4.40982641 0 0 0 Z " fill="#359B44" transform="translate(822,505)"/>
<path d="M0 0 C3.24497904 1.44383337 5.54131149 3.27387322 8.1875 5.625 C14.5020129 10.77361318 21.57908184 13.80208184 28.96386719 17.09033203 C50.2925012 26.6191678 59.45641317 39.71499192 70.21875 59.84375 C75.32027385 69.3647758 81.29427377 77.88451581 87.9609375 86.34765625 C90 89 90 89 91 91 C84.46203831 91.2094242 78.76848257 90.6118184 72.4375 89 C71.5727002 88.78069824 70.70790039 88.56139648 69.81689453 88.33544922 C47.29822883 82.24742179 28.5650563 67.95570928 16.53515625 48.04296875 C8.07936768 33.24311495 2.95357652 16.7369336 0 0 Z " fill="#369D42" transform="translate(200,504)"/>
<path d="M0 0 C37.37362637 0 37.37362637 0 47 9 C48.73046875 11.3671875 48.73046875 11.3671875 50.1875 13.875 C50.92033203 15.10863281 50.92033203 15.10863281 51.66796875 16.3671875 C55.60835801 24.15552287 56.34159828 32.27209837 54.34765625 40.78515625 C51.65113387 48.27292439 47.13211585 54.61543506 40 58.375 C26.77309303 64.47534071 15.7078948 62 0 62 C0 41.54 0 21.08 0 0 Z " fill="#F9FBFA" transform="translate(627,769)"/>
<path d="M0 0 C1.28958618 0.26961548 1.28958618 0.26961548 2.60522461 0.54467773 C5.21930063 1.09895934 7.82881858 1.67090056 10.4375 2.25 C11.64019531 2.51417725 11.64019531 2.51417725 12.8671875 2.78369141 C15.08221063 3.27731714 17.29168647 3.7897554 19.5 4.3125 C20.76972656 4.61285156 22.03945313 4.91320312 23.34765625 5.22265625 C26.27766041 6.19685485 27.57985043 6.84798425 29.4375 9.25 C29.02757812 9.84167969 28.61765625 10.43335938 28.1953125 11.04296875 C27.65648437 11.83316406 27.11765625 12.62335937 26.5625 13.4375 C26.02882813 14.21480469 25.49515625 14.99210938 24.9453125 15.79296875 C21.75050708 20.99901178 21.08081356 25.3779328 21.125 31.4375 C21.12773926 32.1905542 21.13047852 32.9436084 21.13330078 33.71948242 C21.2744121 41.26893773 22.9758813 47.55252034 26.4375 54.25 C14.54527943 57.5184191 1.10085107 55.36013831 -10.75 53 C-11.78793701 52.79552246 -12.82587402 52.59104492 -13.89526367 52.38037109 C-21.05384188 50.85047868 -28.56621384 49.16743652 -33.9375 43.9375 C-39.35090117 34.9845673 -39.131334 28.25463182 -36.83984375 18.0234375 C-34.65918394 10.56576976 -31.49066453 4.2169562 -24.6484375 0.09765625 C-16.70014917 -3.33815763 -8.17657368 -1.75749064 0 0 Z " fill="#FDFDFB" transform="translate(434.5625,628.75)"/>
<path d="M0 0 C6.56124154 5.23695425 8.79352898 13.68695512 10.12890625 21.69921875 C10.98124193 32.86341883 10.98124193 32.86341883 8.50390625 38.19921875 C1.21163805 45.87529054 -5.72628022 47.69907532 -15.87109375 49.69921875 C-16.64275879 49.85165039 -17.41442383 50.00408203 -18.20947266 50.16113281 C-46.56041917 55.5730018 -46.56041917 55.5730018 -53.87109375 50.69921875 C-53.59394531 50.0959375 -53.31679688 49.49265625 -53.03125 48.87109375 C-52.66902344 48.071875 -52.30679688 47.27265625 -51.93359375 46.44921875 C-51.57394531 45.6603125 -51.21429687 44.87140625 -50.84375 44.05859375 C-47.39586932 35.69505988 -47.37356703 24.34919235 -50.74609375 15.94921875 C-51.42219362 14.51688865 -52.12827178 13.09810977 -52.87109375 11.69921875 C-53.33902344 10.60867188 -53.33902344 10.60867188 -53.81640625 9.49609375 C-54.80844879 7.35449775 -54.80844879 7.35449775 -57.87109375 6.69921875 C-56.46011935 3.87726996 -54.4402922 3.51081816 -51.57714844 2.49755859 C-46.32293372 0.94746096 -40.94877225 -0.06626773 -35.57226562 -1.09057617 C-33.50525895 -1.48652559 -31.44222688 -1.89977576 -29.37890625 -2.31445312 C-9.31674762 -6.25490568 -9.31674762 -6.25490568 0 0 Z " fill="#FDFDFB" transform="translate(616.87109375,631.30078125)"/>
<path d="M0 0 C0.55558594 0.69609375 1.11117188 1.3921875 1.68359375 2.109375 C2.44800781 3.06328125 3.21242188 4.0171875 4 5 C4.79535156 5.99515625 5.59070313 6.9903125 6.41015625 8.015625 C12.32675648 15.28787995 18.48022629 21.33483355 26 27 C39.09814304 36.91157988 48.76181725 46.36081605 57.1875 60.5625 C57.61587158 61.2829248 58.04424316 62.00334961 58.4855957 62.74560547 C65.13437554 74.13941566 65.13437554 74.13941566 64.84765625 78.109375 C63.76538048 80.52329884 62.64559957 82.89575468 61.4375 85.25 C60.98246094 86.14203125 60.52742188 87.0340625 60.05859375 87.953125 C59.70925781 88.62859375 59.35992187 89.3040625 59 90 C43.45313717 85.83255617 26.00921919 78.99888335 14 68 C13.35675781 67.41347656 12.71351563 66.82695313 12.05078125 66.22265625 C4.1921069 58.15941771 -2.2462645 45.27301748 -2.22680664 33.98486328 C-2.21383545 33.2473584 -2.20086426 32.50985352 -2.1875 31.75 C-2.18032959 30.9751123 -2.17315918 30.20022461 -2.16577148 29.40185547 C-2.08743849 23.63770753 -1.86308306 17.88154949 -1.5625 12.125 C-1.52342529 11.37057617 -1.48435059 10.61615234 -1.4440918 9.83886719 C-1.24289244 6.46118009 -1.00999512 3.24216922 0 0 Z " fill="#2D9642" transform="translate(322,548)"/>
<path d="M0 0 C2.52881797 3.83778623 2.34033031 7.84738628 2.37109375 12.28125 C2.38012222 13.09057983 2.3891507 13.89990967 2.39845276 14.73376465 C2.41294784 16.44844883 2.42184016 18.16318823 2.42553711 19.87792969 C2.43733522 22.4638828 2.48643865 25.04736981 2.53710938 27.6328125 C2.65729979 40.00973639 0.75400475 49.89629684 -7 60 C-7.40605469 60.54914062 -7.81210937 61.09828125 -8.23046875 61.6640625 C-17.42781691 73.36041002 -31.7537972 78.27464621 -45 84 C-45.70737305 84.30808594 -46.41474609 84.61617187 -47.14355469 84.93359375 C-56.50699013 89 -56.50699013 89 -59 89 C-59.81498562 87.3970947 -60.62689927 85.79262722 -61.4375 84.1875 C-61.88996094 83.29417969 -62.34242188 82.40085937 -62.80859375 81.48046875 C-65.17884893 76.54567518 -65.17884893 76.54567518 -64.35424805 74.02978516 C-63.81344604 72.92062744 -63.81344604 72.92062744 -63.26171875 71.7890625 C-62.85880615 70.96253174 -62.45589355 70.13600098 -62.04077148 69.28442383 C-61.59419189 68.40681396 -61.1476123 67.5292041 -60.6875 66.625 C-60.2325415 65.72612061 -59.77758301 64.82724121 -59.30883789 63.90112305 C-51.48593531 48.8680603 -40.57069686 37.39206876 -27.23461914 27.08764648 C-17.02146438 19.18706052 -7.64117006 10.46768438 0 0 Z " fill="#2F9643" transform="translate(701,549)"/>
<path d="M0 0 C-0.268125 0.495 -0.53625 0.99 -0.8125 1.5 C-3.97838441 8.16501981 -5.53277141 13.52886575 -5.4375 20.875 C-5.43355225 21.66148926 -5.42960449 22.44797852 -5.42553711 23.25830078 C-5.2915499 28.69291154 -4.42924913 33.14150175 -1.97265625 38.0546875 C-0.98743713 40.02512574 -0.45757469 41.85180726 0 44 C0.66 44 1.32 44 2 44 C2 44.66 2 45.32 2 46 C0.71139947 46.46688425 -0.58116332 46.92282871 -1.875 47.375 C-2.59429688 47.63023437 -3.31359375 47.88546875 -4.0546875 48.1484375 C-12.45864981 50.57823032 -20.45115294 51.35679243 -29.1875 51.3125 C-30.2801416 51.30976074 -31.3727832 51.30702148 -32.49853516 51.30419922 C-52.42826871 51.04782086 -52.42826871 51.04782086 -60 46 C-59.71253906 45.44183594 -59.42507813 44.88367188 -59.12890625 44.30859375 C-57.96336835 41.92508891 -56.93392193 39.52135106 -55.9375 37.0625 C-55.59589844 36.22847656 -55.25429688 35.39445313 -54.90234375 34.53515625 C-51.4830627 24.92860474 -51.72768328 14.2482535 -55.9296875 4.98828125 C-57.0760789 2.78400581 -57.0760789 2.78400581 -59 0 C-42.13482985 -7.71905865 -17.07805174 -5.69268391 0 0 Z " fill="#FDFCFA" transform="translate(541,638)"/>
<path d="M0 0 C0.66 0 1.32 0 2 0 C2.24492187 0.59425781 2.48984375 1.18851562 2.7421875 1.80078125 C6.63265716 10.42689157 12.56077956 17.75948203 20.125 23.5 C32.37396471 34.15127366 36.87283583 48.46495039 38 64.0625 C39.42091134 82.08915258 39.42091134 82.08915258 44.1953125 99.4765625 C45 102 45 102 45 106 C28.37340776 100.97561373 14.86912838 87.6836514 6.25 73.0234375 C2.52682392 65.96801884 0.08149809 58.68553141 -2 51 C-2.176521 50.40783691 -2.35304199 49.81567383 -2.53491211 49.20556641 C-5.79415274 33.74940901 -3.44163107 15.30296671 0 0 Z " fill="#48A642" transform="translate(198,409)"/>
<path d="M0 0 C6.0928797 6.0928797 5.32638201 21.8942131 5.375 30.125 C5.16423315 54.17326563 -2.92071726 73.88968993 -19.8984375 90.90234375 C-26.72324523 97.25200664 -35.2359385 102.79680869 -44 106 C-43.74605469 104.99324219 -43.49210938 103.98648438 -43.23046875 102.94921875 C-39.99757766 89.85364431 -37.66077611 76.70139318 -36.28686523 63.2800293 C-34.32484453 44.43480978 -27.92576469 30.91827367 -14 18 C-8.42983141 12.58826435 -3.81434078 6.78105027 0 0 Z " fill="#46A444" transform="translate(824,410)"/>
<path d="M0 0 C2.86553123 3.48462749 4.78536492 7.34367087 6.75 11.375 C7.45406468 12.80746984 8.15849924 14.23975795 8.86328125 15.671875 C9.21729004 16.39310547 9.57129883 17.11433594 9.93603516 17.85742188 C10.95078056 19.90088347 11.99050361 21.9288786 13.04296875 23.953125 C13.5220166 24.8824585 13.5220166 24.8824585 14.01074219 25.83056641 C14.8870248 27.52726747 15.76949751 29.22076742 16.65234375 30.9140625 C20.91282131 40.66993865 19.84007894 52.32179664 16.22265625 62.1015625 C10.79927779 75.27594965 1.80338125 84.96789948 -8 95 C-8.58668457 95.60714844 -9.17336914 96.21429687 -9.77783203 96.83984375 C-11.42791059 98.54640308 -13.08636083 100.2441667 -14.75 101.9375 C-15.25104248 102.45175537 -15.75208496 102.96601074 -16.26831055 103.49584961 C-17.47362138 104.70367632 -18.73231714 105.85780924 -20 107 C-20.66 107 -21.32 107 -22 107 C-22.07498753 101.13251437 -22.12899203 95.26531675 -22.16479492 89.39746094 C-22.17974372 87.40750256 -22.2001102 85.41757632 -22.22631836 83.42773438 C-22.42262311 68.12366174 -21.63516643 54.71054908 -15.1875 40.5625 C-14.47563704 38.93269557 -13.76470971 37.30248219 -13.0546875 35.671875 C-12.70631836 34.88232422 -12.35794922 34.09277344 -11.99902344 33.27929688 C-7.23475999 22.40951107 -3.37498103 11.36442729 0 0 Z " fill="#389C43" transform="translate(738,480)"/>
<path d="M0 0 C2.95794731 2.95794731 3.53841336 6.7016626 4.6875 10.625 C7.46086346 19.77040301 11.02010992 28.32711604 15 37 C17.29377501 42.01443123 18.87129442 46.84671423 20.125 52.1875 C20.37830078 53.23454102 20.37830078 53.23454102 20.63671875 54.30273438 C21.09543115 56.20079238 21.54798963 58.1003348 22 60 C22.27081642 60.96942535 22.27081642 60.96942535 22.54710388 61.95843506 C23.03124937 64.14086591 23.12025428 66.07557976 23.11352539 68.30957031 C23.11344986 69.15013977 23.11337433 69.99070923 23.11329651 70.85675049 C23.10813522 71.75480408 23.10297394 72.65285767 23.09765625 73.578125 C23.0962413 74.5046991 23.09482635 75.43127319 23.09336853 76.38592529 C23.08777824 79.34064992 23.0752275 82.29529833 23.0625 85.25 C23.05748375 87.25520724 23.05292106 89.26041567 23.04882812 91.265625 C23.03781199 96.17711263 23.020554 101.0885434 23 106 C19.08999764 104.16849461 16.14309855 101.67016712 13 98.75 C12.434021 98.22422363 11.86804199 97.69844727 11.28491211 97.15673828 C-2.31527352 84.27632911 -16.42484657 67.91353271 -18.23828125 48.44140625 C-18.65733076 32.18669623 -11.09152587 19.98175046 -3.26513672 6.26733398 C-2.1139605 4.20423605 -1.03723402 2.12222338 0 0 Z " fill="#3B9E43" transform="translate(285,481)"/>
<path d="M0 0 C0.66 0 1.32 0 2 0 C2.24234375 1.0621875 2.4846875 2.124375 2.734375 3.21875 C4.47394228 10.63891332 6.21966486 17.34173231 10 24 C11.24123961 26.41139501 12.46974595 28.82687689 13.6875 31.25 C13.99727783 31.85344238 14.30705566 32.45688477 14.6262207 33.07861328 C21.47959762 46.61908723 18.03747617 62.1093329 14 76 C11.27732129 86.26240437 10.00568732 96.45803058 9 107 C4.61580092 103.83098654 1.6384623 100.26893865 -1.5 95.9375 C-1.98267334 95.27572754 -2.46534668 94.61395508 -2.96264648 93.93212891 C-6.76812133 88.58755664 -9.66009768 83.13844506 -12 77 C-12.52013672 75.75863281 -12.52013672 75.75863281 -13.05078125 74.4921875 C-21.27839375 52.89047238 -14.0392396 30.49852389 -5.12109375 10.58203125 C-3.48888143 7.01388838 -1.78888525 3.49204118 0 0 Z " fill="#56AE43" transform="translate(223,323)"/>
<path d="M0 0 C0.66 0 1.32 0 2 0 C17.57179939 30.78547005 17.57179939 30.78547005 18 47 C18.05027344 47.9796875 18.10054687 48.959375 18.15234375 49.96875 C18.75985306 70.38106281 10.21667986 86.92898723 -2.4375 102.3125 C-3.283125 103.199375 -4.12875 104.08625 -5 105 C-5.66 105 -6.32 105 -7 105 C-7.20363159 103.792229 -7.20363159 103.792229 -7.41137695 102.56005859 C-7.92895809 99.49925501 -8.44932838 96.43894079 -8.97143555 93.37890625 C-9.30268918 91.43264296 -9.63088361 89.48585978 -9.95898438 87.5390625 C-11.24448909 80.01790061 -12.68441072 72.55652938 -14.34057617 65.10791016 C-17.97427234 47.98204853 -15.70819407 34.87691614 -6.86889648 19.94482422 C-3.02525881 13.44943085 -0.78259477 7.51290978 0 0 Z " fill="#57AE44" transform="translate(799,324)"/>
<path d="M0 0 C0.79017937 2.78384731 1.11787517 5.22550963 1.08520508 8.11572266 C1.07801956 8.91821442 1.07083405 9.72070618 1.06343079 10.54751587 C1.04894394 11.41097626 1.03445709 12.27443665 1.01953125 13.1640625 C1.00540695 14.07014252 0.99128265 14.97622253 0.97673035 15.90975952 C0.94361406 17.83475329 0.90725883 19.75969365 0.86791992 21.68457031 C0.81361595 24.56579097 0.78436772 27.44655111 0.75585938 30.328125 C0.41362286 51.44390162 -4.11482632 69.12796369 -14.87768555 87.39501953 C-17.0896917 91.18090735 -18.7712938 94.75537857 -20 99 C-20.66 99 -21.32 99 -22 99 C-23.27529753 95.85595863 -24.54439329 92.70944782 -25.8125 89.5625 C-26.16892578 88.68400391 -26.52535156 87.80550781 -26.89257812 86.90039062 C-31.44149337 75.59070225 -34.17882808 65.94092031 -34.1875 53.6875 C-34.19974609 52.78837891 -34.21199219 51.88925781 -34.22460938 50.96289062 C-34.25391713 37.45201779 -30.01982587 27.87320261 -20.91796875 17.8671875 C-18.20446675 15.22552975 -15.2458269 12.99241558 -12.2109375 10.734375 C-9.40014784 8.5294446 -6.96137368 6.07033888 -4.5078125 3.48046875 C-3 2 -3 2 0 0 Z " fill="#46A643" transform="translate(279,410)"/>
<path d="M0 0 C4.04749048 3.43156802 8.01944821 6.92106861 11.9375 10.5 C14.9097492 13.21105154 17.84946225 15.63670337 21.1875 17.875 C26.23815645 21.57881473 29.08209209 26.54831383 32 32 C32.43699219 32.78632813 32.87398437 33.57265625 33.32421875 34.3828125 C38.78029296 46.29045516 37.50912108 63.13326026 33.421875 75.26171875 C32.95265625 76.49535156 32.4834375 77.72898437 32 79 C31.31755858 80.83978821 30.63528061 82.67963705 29.953125 84.51953125 C28.01491959 89.69801188 26.02401973 94.8545117 24 100 C23.34 100 22.68 100 22 100 C21.731875 99.29617188 21.46375 98.59234375 21.1875 97.8671875 C18.87590582 92.04257847 16.30328058 86.68062599 13.0625 81.3125 C5.69057144 68.97893088 1.94514667 55.87674995 1.71875 41.54296875 C1.70034058 40.64056961 1.68193115 39.73817047 1.66296387 38.8084259 C1.60450084 35.93484702 1.5515961 33.06120986 1.5 30.1875 C1.43179996 26.41004639 1.35806436 22.63275587 1.28125 18.85546875 C1.26767456 18.00204391 1.25409912 17.14861908 1.2401123 16.26933289 C1.12849497 10.78895517 0.67574493 5.44049907 0 0 Z " fill="#49A844" transform="translate(743,409)"/>
<path d="M0 0 C-0.16113281 0.67289063 -0.32226562 1.34578125 -0.48828125 2.0390625 C-1.09054122 5.523895 -1.16956683 8.83857914 -1.1875 12.375 C-1.20167969 13.64085937 -1.21585937 14.90671875 -1.23046875 16.2109375 C-1.13920858 19.9894191 -1.13920858 19.9894191 -0.00390625 23.44921875 C1.1628471 27.57598448 1.29598181 31.18035031 1.25 35.4375 C1.26160156 36.50581055 1.26160156 36.50581055 1.2734375 37.59570312 C1.21950388 52.44093304 -6.84263255 64.45800899 -14.08203125 76.85253906 C-18.10772758 83.75843813 -21.93879511 90.60208818 -25 98 C-27.46587073 95.81112101 -28.56427976 94.03818989 -29.5703125 90.91015625 C-29.82683594 90.12576172 -30.08335937 89.34136719 -30.34765625 88.53320312 C-30.60417969 87.71787109 -30.86070312 86.90253906 -31.125 86.0625 C-31.52138672 84.84530273 -31.52138672 84.84530273 -31.92578125 83.60351562 C-37.71961191 65.67793294 -35.24980319 48.85829347 -27 32 C-22.54153862 23.97476952 -16.97603318 16.94055102 -11 10 C-10.17371094 9.03835938 -9.34742188 8.07671875 -8.49609375 7.0859375 C-2.2784331 0 -2.2784331 0 0 0 Z " fill="#69B743" transform="translate(273,252)"/>
<path d="M0 0 C16.27443543 13.59958667 31.86147326 33.68059833 33.8671875 55.65625 C33.91101563 56.4296875 33.95484375 57.203125 34 58 C34.06445312 59.0415625 34.12890625 60.083125 34.1953125 61.15625 C34.6434973 74.66155205 30.34244222 85.26648189 24 97 C22.16528898 94.24793346 20.83846073 91.5131766 19.48754883 88.50512695 C16.37392292 81.59203071 12.97846044 75.1491574 8.8125 68.8125 C4.25408852 61.83994966 1.32599468 55.00574913 -1 47 C-1.20109375 46.3709375 -1.4021875 45.741875 -1.609375 45.09375 C-2.21886676 41.82687415 -2.18442287 38.56098988 -2.1875 35.25 C-2.19974609 34.57195312 -2.21199219 33.89390625 -2.22460938 33.1953125 C-2.23473984 29.64289445 -1.96491705 26.53381261 -0.99609375 23.109375 C0.30279788 18.39937544 0.22196225 13.85557107 0.125 9 C0.11597656 8.12988281 0.10695313 7.25976562 0.09765625 6.36328125 C0.07434619 4.2420658 0.03848579 2.12099438 0 0 Z " fill="#6EB943" transform="translate(752,253)"/>
<path d="M0 0 C0.66 0.33 1.32 0.66 2 1 C1.5153125 1.94875 1.030625 2.8975 0.53125 3.875 C-3.74436562 12.48009388 -7.14922376 21.09051653 -10.0625 30.25 C-16.20452951 49.27296288 -25.72681429 61.68574426 -40.49658203 74.81665039 C-43.1505506 77.19158215 -45.52866808 79.56798567 -47.7578125 82.3515625 C-48.49773437 83.22554688 -49.23765625 84.09953125 -50 85 C-50.66 85 -51.32 85 -52 85 C-52.59927015 62.01875812 -52.37778225 38.04956279 -36 20 C-27.80345794 12.21470313 -17.34550581 8.34200624 -7.10253906 3.96630859 C-4.80013534 2.95854218 -4.80013534 2.95854218 -2.0234375 1.17578125 C-1.35570312 0.78777344 -0.68796875 0.39976562 0 0 Z " fill="#56AF46" transform="translate(297,341)"/>
<path d="M0 0 C6.42476098 2.03907792 12.36038115 4.85781343 18.4375 7.75 C19.54416016 8.26304687 20.65082031 8.77609375 21.79101562 9.3046875 C36.03098056 16.07994876 43.46772466 25.23310692 49 40 C51.78747593 49.83700723 52.38959841 59.19753121 52.1875 69.375 C52.17239296 70.70831784 52.15871542 72.04165267 52.14648438 73.375 C52.11160627 76.58378565 52.06260026 79.7916563 52 83 C47.05914331 78.79244048 42.2035782 74.50777833 37.40625 70.13671875 C35.48423624 68.42999549 33.53647246 66.87347536 31.5 65.3125 C18.41815157 54.08623291 12.8528327 37.43009254 8.26220703 21.42822266 C6.0955917 13.98612095 3.27806619 7.0211063 0 0 Z " fill="#56AE43" transform="translate(726,342)"/>
<path d="M0 0 C-3.17806149 4.30964399 -6.42513876 8.53984926 -9.8125 12.6875 C-12.90866098 16.52084216 -15.74052171 20.48391419 -18.5 24.5625 C-29.11718997 40.05086842 -41.43858576 48.26879648 -58.48486328 55.63842773 C-59.85553955 56.23119507 -59.85553955 56.23119507 -61.25390625 56.8359375 C-62.07189697 57.18188965 -62.8898877 57.5278418 -63.73266602 57.88427734 C-66.07007844 58.94669891 -66.07007844 58.94669891 -68.17163086 60.63525391 C-70 62 -70 62 -72 62 C-71.38558802 56.53173335 -69.52854362 51.94339937 -67.375 46.9375 C-67.0138208 46.09695068 -66.6526416 45.25640137 -66.28051758 44.39038086 C-58.92808317 27.50898495 -50.42230595 12.16892238 -32.4609375 4.984375 C-27.35476954 3.53205635 -22.17305371 2.72502977 -16.9375 1.875 C-15.86177734 1.69324219 -14.78605469 1.51148438 -13.67773438 1.32421875 C-9.06083542 0.56284546 -4.69035221 -0.10948584 0 0 Z " fill="#66B646" transform="translate(334,285)"/>
<path d="M0 0 C0.66 0.33 1.32 0.66 2 1 C1.60167969 1.58523437 1.20335937 2.17046875 0.79296875 2.7734375 C-2.925611 8.79916527 -4.64318697 14.14394307 -5.625 21.0625 C-8.25865077 39.31771985 -18.02048703 50.94225679 -32.3125 62.25 C-38.55827341 67.24486921 -43.75106401 72.99976563 -49 79 C-53.34122513 71.32545014 -51.79772657 59.62872485 -50.34765625 51.21484375 C-44.02825362 28.89352031 -27.06559509 14.5187254 -7.6315918 3.47363281 C-5.10793295 2.07301122 -2.74590863 0.91530288 0 0 Z " fill="#7FBE41" transform="translate(335,203)"/>
<path d="M0 0 C19.07315025 5.7736494 36.9547273 20.52458755 46.36376953 37.91455078 C53.48273211 51.74133076 53.85305676 64.74537207 52 80 C51.34 80 50.68 80 50 80 C48.75450548 78.56932405 47.57893578 77.07749658 46.4375 75.5625 C40.80735162 68.37292203 34.71535833 62.28267327 27.5 56.6875 C15.576475 47.10520011 9.36896247 35.41001454 7.0625 20.5625 C5.78071166 13.04877258 4.2545443 6.46899973 0 0 Z " fill="#83C141" transform="translate(687,203)"/>
<path d="M0 0 C40.65689024 5.15036785 40.65689024 5.15036785 54.2746582 21.74682617 C60.04282063 29.27963656 63.6808243 37.51903145 66.9375 46.375 C67.55334961 47.97408203 67.55334961 47.97408203 68.18164062 49.60546875 C68.56384766 50.63027344 68.94605469 51.65507812 69.33984375 52.7109375 C69.85599243 54.09224854 69.85599243 54.09224854 70.38256836 55.50146484 C71.0337452 58.1365553 70.91174375 59.47897139 70 62 C69.40574219 61.62488281 68.81148437 61.24976563 68.19921875 60.86328125 C63.79592713 58.1446082 59.42525686 55.65268685 54.6875 53.5625 C36.9644779 45.66338155 25.66075805 35.95329943 15 20 C10.83464435 13.85481482 6.55550606 8.16903786 1.50390625 2.71484375 C0 1 0 1 0 0 Z " fill="#66B643" transform="translate(690,285)"/>
<path d="M0 0 C20.94021422 1.49572959 43.38573078 9.15474435 58.00390625 24.6328125 C66.2547989 34.41762844 70.28041093 46.6382315 73 59 C69.08611579 57.51141695 65.41126469 55.72470349 61.6875 53.8125 C57.16337738 51.49780447 52.61430918 49.39223573 47.91162109 47.46630859 C31.23504272 40.5773744 20.14374018 29.65588048 11.0625 14.203125 C8.34837079 9.98800009 5.14177328 6.44577607 1.6875 2.828125 C0 1 0 1 0 0 Z " fill="#95C842" transform="translate(611,174)"/>
<path d="M0 0 C-0.680625 0.61875 -1.36125 1.2375 -2.0625 1.875 C-7.46511395 7.29283258 -11.4038161 14.01005595 -15.375 20.5 C-24.56457064 34.95825781 -36.18637273 42.16354285 -51.75 48.6875 C-60.13518035 52.15646316 -60.13518035 52.15646316 -68.140625 56.39453125 C-69.08421875 56.92433594 -70.0278125 57.45414063 -71 58 C-71.66 57.67 -72.32 57.34 -73 57 C-70.25710942 42.73696897 -64.42032209 31.14610309 -54 21 C-53.40960938 20.37738281 -52.81921875 19.75476563 -52.2109375 19.11328125 C-39.85653796 7.00379271 -17.13676554 -0.95072208 0 0 Z " fill="#95C842" transform="translate(413,174)"/>
<path d="M0 0 C0.76978683 0.00141495 1.53957367 0.0028299 2.33268738 0.00428772 C4.77782163 0.00986019 7.22286243 0.02240754 9.66796875 0.03515625 C11.33137888 0.04017481 12.99479045 0.0447371 14.65820312 0.04882812 C18.72399403 0.05982059 22.78971558 0.07706615 26.85546875 0.09765625 C23.92719366 3.09118538 20.98579809 5.51916727 17.54296875 7.91015625 C14.20808126 10.29662997 11.13500902 12.64058101 8.29296875 15.59765625 C-5.86916737 30.25845913 -22.76492397 37.00875088 -42.68359375 39.625 C-47.53499825 40.28755073 -52.33675241 41.17534766 -57.14453125 42.09765625 C-52.75407517 34.48553445 -47.72651013 28.14271952 -41.6953125 21.82421875 C-39.15093185 19.18902583 -39.15093185 19.18902583 -37.12890625 16.49609375 C-27.95234614 5.4047396 -14.02843211 -0.09787389 0 0 Z " fill="#7BBD41" transform="translate(359.14453125,237.90234375)"/>
<path d="M0 0 C1.5664497 1.38921413 3.10854572 2.80637714 4.625 4.25 C5.40746094 4.95511719 6.18992187 5.66023437 6.99609375 6.38671875 C14.96763423 13.8990985 23.70043807 23.40087613 28.625 33.25 C27.88378906 33.06824219 27.14257812 32.88648438 26.37890625 32.69921875 C20.69758717 31.34321236 15.05117075 30.11950149 9.28955078 29.17016602 C-10.16153191 25.95610825 -23.86937861 19.24321379 -38.00048828 5.57275391 C-42.85929307 0.89690944 -47.96340745 -2.93227586 -53.65234375 -6.55078125 C-54.22082031 -6.94652344 -54.78929687 -7.34226563 -55.375 -7.75 C-55.375 -8.08 -55.375 -8.41 -55.375 -8.75 C-35.79757186 -10.98826484 -16.46918289 -12.5043796 0 0 Z " fill="#7FBE40" transform="translate(694.375,247.75)"/>
<path d="M0 0 C2.36814081 2.11810901 3.48516657 3.74484016 4.39453125 6.78125 C4.6251123 7.53220947 4.85569336 8.28316895 5.09326172 9.05688477 C5.44928467 10.26622681 5.44928467 10.26622681 5.8125 11.5 C6.33164283 13.20714942 6.85118648 14.91417699 7.37109375 16.62109375 C7.63647949 17.50265137 7.90186523 18.38420898 8.17529297 19.29248047 C9.00184152 22.00604571 9.85657064 24.70896903 10.72265625 27.41015625 C10.99940186 28.27382812 11.27614746 29.1375 11.5612793 30.02734375 C12.09677132 31.69567533 12.63336281 33.36365447 13.17114258 35.03125 C15 40.77750897 15 40.77750897 15 43 C30.51 43 46.02 43 62 43 C62 43.33 62 43.66 62 44 C60.13867432 44.029729 60.13867432 44.029729 58.23974609 44.06005859 C53.62138099 44.13632081 49.00332248 44.2250063 44.38525391 44.31738281 C42.38922188 44.35558748 40.39312301 44.39045502 38.39697266 44.421875 C35.52221846 44.46771064 32.64792108 44.52567441 29.7734375 44.5859375 C28.88570648 44.59748871 27.99797546 44.60903992 27.08334351 44.62094116 C19.22905951 44.80663699 14.36435009 46.07120865 8.75 51.875 C7.89921875 52.73867187 7.0484375 53.60234375 6.171875 54.4921875 C4.30987778 56.64219149 3.08864792 58.39934108 2 61 C-4.63777266 61.31867527 -10.23893747 60.18907143 -16.625 58.4375 C-17.61395264 58.17300049 -18.60290527 57.90850098 -19.62182617 57.63598633 C-46.16808059 50.41595971 -46.16808059 50.41595971 -53 47 C-52.67 46.01 -52.34 45.02 -52 44 C-39.46 44 -26.92 44 -14 44 C-13.67 41.69 -13.34 39.38 -13 37 C-12.16796875 34.62109375 -12.16796875 34.62109375 -11.1875 32.4375 C-9.46463387 28.35113521 -8.17478329 24.27658265 -7 20 C-5.57558726 14.83720757 -3.91291262 9.92104784 -1.83203125 4.98828125 C-1.14823418 3.35423098 -0.56015165 1.68045495 0 0 Z " fill="#FDE16D" transform="translate(511,132)"/>
<path d="M0 0 C4.640625 -0.061875 9.28125 -0.12375 14.0625 -0.1875 C16.23791382 -0.22846802 16.23791382 -0.22846802 18.45727539 -0.27026367 C32.18806428 -0.35894784 32.18806428 -0.35894784 37.7421875 4.53515625 C41.97351184 10.24014872 42.89048176 13.91756369 42 21 C39.99432003 26.51093374 36.98870719 29.67981791 31.6171875 32.21923828 C25.9170926 33.9196957 19.88837426 33.39878942 14 33.25 C9.38 33.1675 4.76 33.085 0 33 C0 22.11 0 11.22 0 0 Z " fill="#FCFDFC" transform="translate(432,770)"/>
<path d="M0 0 C4.85690637 -0.06912835 9.71208421 -0.12878152 14.5690918 -0.16479492 C16.21889044 -0.17981806 17.86864958 -0.2002426 19.51831055 -0.22631836 C21.89902536 -0.26298899 24.27920908 -0.27979103 26.66015625 -0.29296875 C27.38960953 -0.30845261 28.11906281 -0.32393646 28.87062073 -0.33988953 C34.96472889 -0.34186166 39.26447849 1.24646057 44.4375 4.5625 C46.96605738 8.50704951 46.84515545 12.46555729 46 17 C42.94567267 21.31199153 40.00545836 22.66858178 35 24 C32.21513377 24.16237778 29.53777516 24.23437565 26.7578125 24.1953125 C25.98944061 24.1924826 25.22106873 24.18965271 24.42941284 24.18673706 C21.99444479 24.17561311 19.55985538 24.1505236 17.125 24.125 C15.46615118 24.11496011 13.80729654 24.10583603 12.1484375 24.09765625 C8.09869791 24.07740755 4.04976882 24.03824546 0 24 C0 16.08 0 8.16 0 0 Z " fill="#FCFCFD" transform="translate(214,808)"/>
<path d="M0 0 C3.96567985 -0.06939297 7.92978564 -0.12896219 11.89575195 -0.16479492 C13.89744576 -0.18705458 15.89894275 -0.22520146 17.90039062 -0.26367188 C34.10586481 -0.38613138 34.10586481 -0.38613138 39.69555664 4.47436523 C42.21742196 7.42385735 42.09887043 11.25610647 42 15 C40.69504349 18.5310588 39.56491861 19.65364298 36.36669922 21.61450195 C32.52162354 23.19686631 29.27570863 23.38441944 25.1953125 23.29296875 C24.4713327 23.28872391 23.74735291 23.28447906 23.00143433 23.28010559 C20.70889713 23.26342972 18.41726754 23.22580081 16.125 23.1875 C14.56251278 23.17243871 13.00001165 23.15875284 11.4375 23.14648438 C7.62437647 23.11612511 3.81319355 23.0573892 0 23 C0 15.41 0 7.82 0 0 Z " fill="#F9FBFC" transform="translate(214,768)"/>
<path d="M0 0 C5.58659092 -0.17350846 11.17160262 -0.30028255 16.76025391 -0.38452148 C18.65962045 -0.41964698 20.55879874 -0.46736031 22.45751953 -0.52807617 C25.19350637 -0.61335182 27.92698578 -0.65276453 30.6640625 -0.68359375 C31.50804596 -0.71972275 32.35202942 -0.75585175 33.22158813 -0.79307556 C36.77655466 -0.79542392 39.06766043 -0.79435875 41.84246826 1.5697937 C43.45849609 3.48022461 43.45849609 3.48022461 44.82040405 5.39512634 C45.92380275 7.15183308 45.92380275 7.15183308 48 8 C51 13.30769231 51 13.30769231 51 17 C45.14901213 16.37358444 39.57653868 15.31903778 33.875 13.875 C33.02695801 13.66198242 32.17891602 13.44896484 31.30517578 13.22949219 C6.86934541 6.9346727 6.86934541 6.9346727 -1 3 C-0.67 2.01 -0.34 1.02 0 0 Z " fill="#FBD345" transform="translate(459,176)"/>
<path d="M0 0 C6.6 0 13.2 0 20 0 C19.67 0.66 19.34 1.32 19 2 C16.28553021 2.31241455 13.66090639 2.51336592 10.9375 2.625 C10.17888672 2.66367187 9.42027344 2.70234375 8.63867188 2.7421875 C6.75952805 2.83673562 4.87979664 2.91946756 3 3 C2.17505624 24.84331392 1.85837056 46.68569598 1.68359375 68.54296875 C1.67818085 69.21989604 1.67276795 69.89682332 1.66719103 70.59426355 C1.60075491 78.97891284 1.5405647 87.36360246 1.48259127 95.74831402 C1.43235546 102.99198917 1.37776654 110.23562983 1.32291877 117.47927129 C1.21064303 132.3194821 1.10365208 147.15972626 1 162 C3.97 162 6.94 162 10 162 C10 162.33 10 162.66 10 163 C6.7 163 3.4 163 0 163 C0 109.21 0 55.42 0 0 Z " fill="#7AD2F1" transform="translate(378,280)"/>
<path d="M0 0 C0.33 0 0.66 0 1 0 C1 44.22 1 88.44 1 134 C0.67 134 0.34 134 0 134 C-0.17514819 124.29180607 -0.34043962 114.58346066 -0.5 104.875 C-0.51202454 104.14787811 -0.52404907 103.42075623 -0.53643799 102.67160034 C-0.92602551 79.01119687 -1.09556676 55.36289763 -0.96289062 31.69873047 C-0.95866089 30.63278656 -0.95443115 29.56684265 -0.95007324 28.46859741 C-0.94203146 26.50993479 -0.92982156 24.55128202 -0.91223145 22.59268188 C-0.89124868 16.97882008 -1.28229 11.5693166 -2 6 C-3.98 7.98 -5.96 9.96 -8 12 C-8.66 11.67 -9.32 11.34 -10 11 C-8.35742342 9.16365304 -6.71117305 7.3308593 -5.0625 5.5 C-4.59392578 4.97535156 -4.12535156 4.45070313 -3.64257812 3.91015625 C-2.44904592 2.5878256 -1.22665821 1.29166061 0 0 Z " fill="#41AEDE" transform="translate(365,309)"/>
<path d="M0 0 C0.66 0 1.32 0 2 0 C5.51024101 6.72796194 6.15604736 12.62515409 4.203125 20.015625 C1.62852709 27.58098194 1.62852709 27.58098194 -2 30 C-5.07055187 23.34713762 -6.04650144 17.30682257 -5 10 C-3.66194981 6.44115818 -2.00024595 3.22896846 0 0 Z " fill="#FCF9F1" transform="translate(472,646)"/>
<path d="M0 0 C3 1 3 1 4.16796875 2.6796875 C7.385129 9.60705939 8.57517603 16.30841967 6.09375 23.69921875 C5.14478868 25.85810576 4.14095017 27.93712135 3 30 C-2.58979394 23.6649002 -3.3824499 18.16884297 -3.26953125 9.92578125 C-2.91163107 6.04074884 -1.85761149 3.40562106 0 0 Z " fill="#FCF9F2" transform="translate(550,646)"/>
<path d="M0 0 C1.98 1.65 3.96 3.3 6 5 C5.01 5.33 4.02 5.66 3 6 C2.9845388 7.34373436 2.9845388 7.34373436 2.96876526 8.71461487 C2.8692444 17.3139442 2.76656559 25.91322948 2.66066074 34.51248264 C2.60636601 38.92944693 2.55313707 43.34641774 2.50268555 47.76342773 C2.24947429 69.85367563 1.83008767 91.923275 1 114 C0.67 114 0.34 114 0 114 C0 76.38 0 38.76 0 0 Z " fill="#288ECD" transform="translate(689,357)"/>
<path d="M0 0 C1.32 1.32 2.64 2.64 4 4 C3.01 4.495 3.01 4.495 2 5 C2.00222061 5.63240097 2.00444122 6.26480194 2.00672913 6.91636658 C2.03451472 15.25672983 2.05208862 23.59709851 2.0625 31.9375 C2.06335602 32.61824837 2.06421204 33.29899673 2.06509399 34.00037384 C2.09069198 57.12926663 1.882043 80.24935188 1.5 103.375 C1.48804218 104.09918499 1.47608437 104.82336998 1.46376419 105.56949997 C1.31753326 114.37981735 1.16311699 123.189978 1 132 C0.67 132 0.34 132 0 132 C0 88.44 0 44.88 0 0 Z " fill="#3DA2D8" transform="translate(658,309)"/>
<path d="M0 0 C0.66 0 1.32 0 2 0 C2 46.2 2 92.4 2 140 C1.67 140 1.34 140 1 140 C0.99576806 139.43183217 0.99153612 138.86366434 0.98717594 138.2782793 C0.88314955 124.35107745 0.77441589 110.42391868 0.66066074 96.49679279 C0.60575558 89.76130462 0.55245723 83.02581149 0.50268555 76.2902832 C0.45447531 69.77387943 0.40212329 63.25752021 0.34705925 56.74117088 C0.32688885 54.27168088 0.30813891 51.80217879 0.29092598 49.3326664 C0.18665592 34.53005576 -0.15808844 19.7800121 -1 5 C-2.65 6.32 -4.3 7.64 -6 9 C-4.4722133 5.56247993 -2.49818944 2.81046312 0 0 Z " fill="#63B4DD" transform="translate(333,357)"/>
<path d="M0 0 C0.33 0 0.66 0 1 0 C1.02315648 11.79583953 1.040932 23.59167366 1.05181217 35.38753128 C1.05703374 40.8646449 1.06411827 46.34174298 1.07543945 51.81884766 C1.08629404 57.10320946 1.09228232 62.38755631 1.09487724 67.67192841 C1.09672684 69.6893716 1.10033856 71.70681396 1.10573006 73.72425079 C1.11297456 76.54697955 1.11398949 79.36964627 1.11352539 82.19238281 C1.11712067 83.02891891 1.12071594 83.86545502 1.12442017 84.7273407 C1.11801076 88.32301556 0.97139071 91.54032338 0 95 C0.66 95 1.32 95 2 95 C2.33 94.01 2.66 93.02 3 92 C3.33 92.66 3.66 93.32 4 94 C3.22265625 95.7265625 3.22265625 95.7265625 2.0625 97.625 C1.381875 98.73875 0.70125 99.8525 0 101 C-0.33 101 -0.66 101 -1 101 C-1.02353662 91.9655666 -1.0411195 82.93114431 -1.05181217 73.89668655 C-1.05695317 69.69820293 -1.06388317 65.49974079 -1.07543945 61.30126953 C-1.13030619 40.84051624 -0.94553285 20.44359289 0 0 Z " fill="#1650AB" transform="translate(516,427)"/>
<path d="M0 0 C0.33 0 0.66 0 1 0 C2.00475693 22.87158135 2.08887352 45.73608467 2.0625 68.625 C2.06164398 69.3731535 2.06078796 70.12130699 2.05990601 70.89213181 C2.04840008 80.26144447 2.02816032 89.63072159 2 99 C-1.11676895 95.18600553 -3.71521253 91.28813892 -6.125 87 C-6.47175781 86.39671875 -6.81851562 85.7934375 -7.17578125 85.171875 C-9.05469123 81.86038614 -10.68664206 78.57449997 -12 75 C-8.67140292 78.04875927 -6.49564707 81.21910958 -4.25 85.125 C-3.63640625 86.17945313 -3.0228125 87.23390625 -2.390625 88.3203125 C-1 91 -1 91 -1 93 C-0.34 93 0.32 93 1 93 C0.9285376 91.99420898 0.8570752 90.98841797 0.78344727 89.95214844 C-0.32025279 72.57874802 -0.11552376 55.18580355 -0.06866455 37.78668213 C-0.05828451 33.51534527 -0.05383603 29.24400219 -0.04882812 24.97265625 C-0.03822453 16.64842081 -0.0212436 8.32421507 0 0 Z " fill="#1A68B7" transform="translate(507,429)"/>
<path d="M0 0 C0.66 0.33 1.32 0.66 2 1 C-4.93 7.435 -4.93 7.435 -12 14 C-9.69 13.34 -7.38 12.68 -5 12 C-7.79361127 14.93587851 -10.66938424 17.31997019 -14 19.625 C-14.845625 20.21539062 -15.69125 20.80578125 -16.5625 21.4140625 C-18.66414346 22.78147796 -20.73205198 23.93952431 -23 25 C-23 25.66 -23 26.32 -23 27 C-23.66 27 -24.32 27 -25 27 C-23.67912396 24.10616328 -22.22456421 21.93310911 -20.05859375 19.609375 C-19.47867676 18.98554932 -18.89875977 18.36172363 -18.30126953 17.71899414 C-17.37870361 16.74434204 -17.37870361 16.74434204 -16.4375 15.75 C-15.81214355 15.08411865 -15.18678711 14.4182373 -14.54248047 13.73217773 C-9.92591377 8.86322606 -5.17177316 4.28244709 0 0 Z " fill="#2559AA" transform="translate(558,483)"/>
<path d="M0 0 C1.32 1.32 2.64 2.64 4 4 C3.01 4.495 3.01 4.495 2 5 C2.01160156 6.22589844 2.02320313 7.45179688 2.03515625 8.71484375 C2.12390714 22.83316966 1.65989677 36.89821655 1 51 C0.67 51 0.34 51 0 51 C0 34.17 0 17.34 0 0 Z " fill="#53BDE7" transform="translate(658,309)"/>
<path d="M0 0 C4.8278481 1.55410729 8.28850899 4.31260334 12.1875 7.4375 C12.81591797 7.92798828 13.44433594 8.41847656 14.09179688 8.92382812 C16.96356011 11.19973888 18.93580887 12.90371331 21 16 C17.52329665 14.70391447 14.5057102 13.17167921 11.375 11.1875 C6.1185744 7.96556443 0.65816054 5.43107278 -5 3 C-1.37673261 1.7922442 -0.35853631 2.45688872 3 4 C3 3.34 3 2.68 3 2 C2.01 1.67 1.02 1.34 0 1 C0 0.67 0 0.34 0 0 Z " fill="#2664B2" transform="translate(472,509)"/>
<path d="M0 0 C0.33 0 0.66 0 1 0 C1.33 14.19 1.66 28.38 2 43 C7.94 40.525 7.94 40.525 14 38 C14.66 38.33 15.32 38.66 16 39 C13.71070947 40.17154293 11.41881638 41.33738074 9.125 42.5 C8.47402344 42.83386719 7.82304687 43.16773438 7.15234375 43.51171875 C2.2265625 46 2.2265625 46 0 46 C0 30.82 0 15.64 0 0 Z " fill="#114FA8" transform="translate(320,479)"/>
<path d="M0 0 C0.33 0 0.66 0 1 0 C1 9.9 1 19.8 1 30 C0.67 30 0.34 30 0 30 C-0.66 22.08 -1.32 14.16 -2 6 C-3.98 7.98 -5.96 9.96 -8 12 C-8.66 11.67 -9.32 11.34 -10 11 C-8.35742342 9.16365304 -6.71117305 7.3308593 -5.0625 5.5 C-4.59392578 4.97535156 -4.12535156 4.45070313 -3.64257812 3.91015625 C-2.44904592 2.5878256 -1.22665821 1.29166061 0 0 Z " fill="#5AD1F4" transform="translate(365,309)"/>
<path d="M0 0 C0.33 0.99 0.66 1.98 1 3 C2.65 2.67 4.3 2.34 6 2 C2.27671113 5.01547614 -1.82611364 7.24493448 -6 9.5625 C-6.7115625 9.96146484 -7.423125 10.36042969 -8.15625 10.77148438 C-11.4060444 12.58736763 -14.66103106 14.35221513 -18 16 C-12.91626564 9.36290237 -6.7555217 4.82068782 0 0 Z " fill="#144DA8" transform="translate(548,510)"/>
<path d="M0 0 C1.98 1.65 3.96 3.3 6 5 C5.01 5.33 4.02 5.66 3 6 C2.01 20.85 2.01 20.85 1 36 C0.67 36 0.34 36 0 36 C0 24.12 0 12.24 0 0 Z " fill="#48B0DD" transform="translate(689,357)"/>
<path d="M0 0 C0.66 0.33 1.32 0.66 2 1 C-7.76873265 12.47826087 -7.76873265 12.47826087 -13 17 C-13.66 17 -14.32 17 -15 17 C-15 17.66 -15 18.32 -15 19 C-15.99 18.67 -16.98 18.34 -18 18 C-12.06 12.06 -6.12 6.12 0 0 Z " fill="#276DB7" transform="translate(365,754)"/>
<path d="M0 0 C0.87333984 -0.01224609 1.74667969 -0.02449219 2.64648438 -0.03710938 C8.21618701 -0.04958817 12.96719444 0.61315506 18.3125 2.1875 C18.3125 2.5175 18.3125 2.8475 18.3125 3.1875 C14.37984104 3.23697698 10.44730286 3.27325578 6.5144043 3.29736328 C4.51930382 3.31235495 2.52429054 3.33776731 0.52929688 3.36328125 C-0.72431641 3.36972656 -1.97792969 3.37617188 -3.26953125 3.3828125 C-4.42686768 3.39328613 -5.5842041 3.40375977 -6.77661133 3.41455078 C-9.6875 3.1875 -9.6875 3.1875 -12.6875 1.1875 C-8.45551498 -0.22316167 -4.43282818 0.0032006 0 0 Z " fill="#2E87C8" transform="translate(383.6875,453.8125)"/>
<path d="M0 0 C-3.40790332 1.22334991 -6.77362257 2.19868173 -10.3125 2.9375 C-16.12028825 4.1911204 -21.77251866 5.64414179 -26.875 8.75 C-27.926875 9.36875 -27.926875 9.36875 -29 10 C-29.99 9.67 -30.98 9.34 -32 9 C-9.65941359 -3.39257453 -9.65941359 -3.39257453 0 0 Z " fill="#FBD551" transform="translate(581,620)"/>
<path d="M0 0 C0.33 0.99 0.66 1.98 1 3 C-0.55283125 4.63424183 -2.1176881 6.25706248 -3.6875 7.875 C-4.99267578 9.23238281 -4.99267578 9.23238281 -6.32421875 10.6171875 C-8.87943979 12.89263982 -10.76901814 13.98704352 -14 15 C-9.59156563 9.70987876 -4.92440206 4.81191572 0 0 Z " fill="#296AB3" transform="translate(346,773)"/>
<path d="M0 0 C0.33 0.99 0.66 1.98 1 3 C-2.3 6.3 -5.6 9.6 -9 13 C-9.66 12.67 -10.32 12.34 -11 12 C-9.54234835 10.37438849 -8.08385614 8.74953066 -6.625 7.125 C-5.81289063 6.22007812 -5.00078125 5.31515625 -4.1640625 4.3828125 C-2.80923795 2.89103817 -1.42494565 1.42494565 0 0 Z " fill="#55AC45" transform="translate(809,429)"/>
<path d="M0 0 C4 2 4 2 6 5 C5.34 5.66 4.68 6.32 4 7 C4.165 7.825 4.33 8.65 4.5 9.5 C4.665 10.325 4.83 11.15 5 12 C4.34 12.66 3.68 13.32 3 14 C2.01 9.38 1.02 4.76 0 0 Z " fill="#6BBD69" transform="translate(200,504)"/>
<path d="M0 0 C0.66 0 1.32 0 2 0 C2.33 3.3 2.66 6.6 3 10 C2.01 9.01 1.02 8.02 0 7 C-0.99 8.485 -0.99 8.485 -2 10 C-2.66 10 -3.32 10 -4 10 C-2.66666667 6.66666667 -1.33333333 3.33333333 0 0 Z " fill="#71C554" transform="translate(223,323)"/>
<path d="M0 0 C0.66 0.33 1.32 0.66 2 1 C-1.63 4.96 -5.26 8.92 -9 13 C-9.99 12.67 -10.98 12.34 -12 12 C-8.04 8.04 -4.08 4.08 0 0 Z " fill="#49BFEB" transform="translate(537,314)"/>
<path d="M0 0 C2.6465335 2.6465335 3.59941997 5.56221264 5 9 C5.99 9 6.98 9 8 9 C7.67 10.98 7.34 12.96 7 15 C6.34 15 5.68 15 5 15 C4.16013916 13.06532058 3.32831973 11.12714871 2.5 9.1875 C2.0359375 8.10855469 1.571875 7.02960938 1.09375 5.91796875 C0 3 0 3 0 0 Z " fill="#35953F" transform="translate(252,494)"/>
<path d="M0 0 C0.33 0 0.66 0 1 0 C1 2.97 1 5.94 1 9 C1.66 9 2.32 9 3 9 C3.33 8.01 3.66 7.02 4 6 C4.33 6.66 4.66 7.32 5 8 C4.22265625 9.7265625 4.22265625 9.7265625 3.0625 11.625 C2.0415625 13.295625 2.0415625 13.295625 1 15 C0.67 15 0.34 15 0 15 C0 10.05 0 5.1 0 0 Z " fill="#1949A7" transform="translate(515,513)"/>
<path d="M0 0 C0.66 0 1.32 0 2 0 C2.625 2.3125 2.625 2.3125 3 5 C2.01 6.485 2.01 6.485 1 8 C0.29187186 10.32108669 -0.38024152 12.65377147 -1 15 C-2.19126781 11.42619658 -1.7349445 9.49116698 -1.0625 5.8125 C-0.86785156 4.72582031 -0.67320312 3.63914062 -0.47265625 2.51953125 C-0.31667969 1.68808594 -0.16070312 0.85664063 0 0 Z " fill="#66BA51" transform="translate(198,409)"/>
<path d="M0 0 C0.66 0.33 1.32 0.66 2 1 C0.68 3.64 -0.64 6.28 -2 9 C-2.66 7.68 -3.32 6.36 -4 5 C-4.99 4.67 -5.98 4.34 -7 4 C-1.7265625 0.77734375 -1.7265625 0.77734375 0 0 Z " fill="#75C460" transform="translate(297,341)"/>
<path d="M0 0 C1.35304209 4.05912626 0.15216503 5.77149591 -1.4375 9.6875 C-1.91058594 10.86699219 -2.38367188 12.04648437 -2.87109375 13.26171875 C-3.24363281 14.16535156 -3.61617187 15.06898438 -4 16 C-4.66 16 -5.32 16 -6 16 C-5.37183502 12.05050296 -4.1354471 8.80107972 -2.4375 5.1875 C-1.98246094 4.21167969 -1.52742187 3.23585938 -1.05859375 2.23046875 C-0.70925781 1.49441406 -0.35992188 0.75835937 0 0 Z " fill="#3C9F49" transform="translate(771,493)"/>
<path d="M0 0 C1.98 1.65 3.96 3.3 6 5 C5.01 5.33 4.02 5.66 3 6 C2.67 9.3 2.34 12.6 2 16 C1.67 16 1.34 16 1 16 C0.67 10.72 0.34 5.44 0 0 Z " fill="#3BACDF" transform="translate(689,357)"/>
<path d="M0 0 C-3.63 1.32 -7.26 2.64 -11 4 C-10.01 5.485 -10.01 5.485 -9 7 C-10.65 6.67 -12.3 6.34 -14 6 C-13.5 4.1875 -13.5 4.1875 -12 2 C-7.6257914 -0.38943554 -4.91389564 -1.22847391 0 0 Z " fill="#F6C537" transform="translate(571,633)"/>
<path d="M0 0 C0.66 0 1.32 0 2 0 C1.835 1.093125 1.67 2.18625 1.5 3.3125 C0.93281816 6.87525873 0.93281816 6.87525873 1 10 C-0.98 10.99 -0.98 10.99 -3 12 C-2.01 8.04 -1.02 4.08 0 0 Z " fill="#E19E2E" transform="translate(477,236)"/>
<path d="M0 0 C2.64 0 5.28 0 8 0 C7.67 0.99 7.34 1.98 7 3 C7.66 3.33 8.32 3.66 9 4 C7.3125 4.8125 7.3125 4.8125 5 5 C2.25 2.5625 2.25 2.5625 0 0 Z " fill="#F7BE2F" transform="translate(451,176)"/>
<path d="M0 0 C6.6 0 13.2 0 20 0 C20 0.33 20 0.66 20 1 C17.06255476 1.16768291 14.12505096 1.33418858 11.1875 1.5 C10.35412109 1.54769531 9.52074219 1.59539063 8.66210938 1.64453125 C7.85966797 1.68964844 7.05722656 1.73476563 6.23046875 1.78125 C5.49207764 1.82314453 4.75368652 1.86503906 3.99291992 1.90820312 C2.33009506 1.98479533 0.6645879 2 -1 2 C-0.67 1.34 -0.34 0.68 0 0 Z " fill="#2BA454" transform="translate(811,751)"/>
<path d="M0 0 C-3.96 1.98 -7.92 3.96 -12 6 C-12.33 5.34 -12.66 4.68 -13 4 C-11.59248779 3.13083113 -10.1735479 2.28014851 -8.75 1.4375 C-7.96109375 0.96183594 -7.1721875 0.48617188 -6.359375 -0.00390625 C-4 -1 -4 -1 0 0 Z " fill="#2565B7" transform="translate(586,469)"/>
<path d="M0 0 C0 3 0 3 -1.3125 4.60546875 C-1.869375 5.12753906 -2.42625 5.64960938 -3 6.1875 C-3.556875 6.71730469 -4.11375 7.24710937 -4.6875 7.79296875 C-5.120625 8.19128906 -5.55375 8.58960938 -6 9 C-6.99 8.67 -7.98 8.34 -9 8 C-6.03 5.36 -3.06 2.72 0 0 Z " fill="#58AD4A" transform="translate(264,423)"/>
<path d="M0 0 C-1.32258472 0.68774405 -2.65986503 1.34711373 -4 2 C-5.155 2.5775 -6.31 3.155 -7.5 3.75 C-11 5 -11 5 -13.21875 4.078125 C-14.10046875 3.54445313 -14.10046875 3.54445313 -15 3 C-13.44033782 2.491217 -11.87710759 1.99336531 -10.3125 1.5 C-9.44238281 1.2215625 -8.57226562 0.943125 -7.67578125 0.65625 C-5.00608323 0.00149195 -2.73603316 -0.11831495 0 0 Z " fill="#FACF4E" transform="translate(492,624)"/>
<path d="M0 0 C3.00765886 2.84936103 5.27845212 5.23511958 7 9 C5.68388323 8.04663979 4.37221039 7.08714226 3.0625 6.125 C2.33160156 5.59132813 1.60070312 5.05765625 0.84765625 4.5078125 C-1 3 -1 3 -2 1 C-1.34 0.67 -0.68 0.34 0 0 Z " fill="#2C64AE" transform="translate(484,501)"/>
<path d="M0 0 C2.475 0.99 2.475 0.99 5 2 C5.33 1.34 5.66 0.68 6 0 C6.66 2.31 7.32 4.62 8 7 C7.34 7 6.68 7 6 7 C6 6.34 6 5.68 6 5 C5.195625 4.731875 4.39125 4.46375 3.5625 4.1875 C2.716875 3.795625 1.87125 3.40375 1 3 C0.67 2.01 0.34 1.02 0 0 Z " fill="#E6A73C" transform="translate(542,241)"/>
<path d="M0 0 C2.97 0.33 5.94 0.66 9 1 C7.35 2.32 5.7 3.64 4 5 C2.68 3.35 1.36 1.7 0 0 Z " fill="#B1D656" transform="translate(611,174)"/>
<path d="M0 0 C0 3 0 3 -1 5 C-0.01 5.33 0.98 5.66 2 6 C-0.31 6.33 -2.62 6.66 -5 7 C-3.70700306 4.11562221 -2.34058637 2.12780579 0 0 Z " fill="#41A057" transform="translate(737,589)"/>
<path d="M0 0 C0.28571429 7.42857143 0.28571429 7.42857143 -2 11 C-2 8.69 -2 6.38 -2 4 C-2.99 3.67 -3.98 3.34 -5 3 C-1.125 0 -1.125 0 0 0 Z " fill="#52AD53" transform="translate(822,505)"/>
<path d="M0 0 C0.66 0.33 1.32 0.66 2 1 C0.71451591 2.33929505 -0.57858155 3.67128643 -1.875 5 C-2.59429688 5.7425 -3.31359375 6.485 -4.0546875 7.25 C-6 9 -6 9 -8 9 C-6.90101298 5.70303895 -6.05402613 4.95329411 -3.4375 2.8125 C-2.79683594 2.28269531 -2.15617188 1.75289063 -1.49609375 1.20703125 C-0.75552734 0.60955078 -0.75552734 0.60955078 0 0 Z " fill="#1E4EA6" transform="translate(554,475)"/>
<path d="M0 0 C2.64752004 2.57784846 4.94432065 4.91648098 7 8 C5.02 7.34 3.04 6.68 1 6 C0.67 4.02 0.34 2.04 0 0 Z " fill="#7EBF50" transform="translate(716,273)"/>
<path d="M0 0 C2.97 0.99 5.94 1.98 9 3 C6 5 6 5 3 6 C2.01 4.02 1.02 2.04 0 0 Z " fill="#43A550" transform="translate(242,598)"/>
<path d="M0 0 C2.10814567 4.21629134 2.17700355 6.39790775 2 11 C1.01 11.33 0.02 11.66 -1 12 C-0.67 8.04 -0.34 4.08 0 0 Z " fill="#259542" transform="translate(717,575)"/>
<path d="M0 0 C0.66 0 1.32 0 2 0 C2.66 1.65 3.32 3.3 4 5 C2.35 6.32 0.7 7.64 -1 9 C-0.67 6.03 -0.34 3.06 0 0 Z " fill="#6EC14B" transform="translate(799,324)"/>
<path d="M0 0 C0.33 0 0.66 0 1 0 C1.66 3.63 2.32 7.26 3 11 C2.01 11.66 1.02 12.32 0 13 C0 8.71 0 4.42 0 0 Z " fill="#63B73B" transform="translate(285,269)"/>
<path d="M0 0 C1.32 1.32 2.64 2.64 4 4 C3.67 4.33 3.34 4.66 3 5 C2.76712992 6.68183948 2.58735834 8.3712416 2.4375 10.0625 C2.31181641 11.44115234 2.31181641 11.44115234 2.18359375 12.84765625 C2.12300781 13.55792969 2.06242188 14.26820313 2 15 C1.67 15 1.34 15 1 15 C0.67 10.05 0.34 5.1 0 0 Z " fill="#9BD069" transform="translate(752,253)"/>
<path d="M0 0 C0.99 0 1.98 0 3 0 C2.75 1.875 2.75 1.875 2 4 C0.125 5.3125 0.125 5.3125 -2 6 C-2.99 5.67 -3.98 5.34 -5 5 C-3.02 4.34 -1.04 3.68 1 3 C0.67 2.01 0.34 1.02 0 0 Z " fill="#D89926" transform="translate(542,681)"/>
<path d="M0 0 C2 3 2 3 2 7 C-0.475 6.01 -0.475 6.01 -3 5 C-2.01 3.35 -1.02 1.7 0 0 Z " fill="#50AF57" transform="translate(241,508)"/>
<path d="M0 0 C1.32 1.32 2.64 2.64 4 4 C3.01 4.495 3.01 4.495 2 5 C1.59270772 7.32156597 1.25561323 9.6568787 1 12 C0.67 12 0.34 12 0 12 C0 8.04 0 4.08 0 0 Z " fill="#53C6EA" transform="translate(658,309)"/>
<path d="M0 0 C-1.65 1.65 -3.3 3.3 -5 5 C-5 4.01 -5 3.02 -5 2 C-5.99 1.67 -6.98 1.34 -8 1 C-3.375 -1.125 -3.375 -1.125 0 0 Z " fill="#46A75D" transform="translate(782,599)"/>
<path d="M0 0 C0.99 0.33 1.98 0.66 3 1 C0.03368051 3.47193291 -2.51236907 5.25618453 -6 7 C-4.02 4.69 -2.04 2.38 0 0 Z " fill="#355FB9" transform="translate(536,519)"/>
<path d="M0 0 C1.65 1.65 3.3 3.3 5 5 C4.34 5 3.68 5 3 5 C2.34 6.32 1.68 7.64 1 9 C0.67 6.03 0.34 3.06 0 0 Z " fill="#68BD55" transform="translate(743,409)"/>
<path d="M0 0 C0.66 0 1.32 0 2 0 C2.20086443 3.71599191 2.1519437 4.77208445 0 8 C-0.66 8 -1.32 8 -2 8 C-1.125 2.25 -1.125 2.25 0 0 Z " fill="#7BC26E" transform="translate(264,339)"/>
<path d="M0 0 C2.475 0.99 2.475 0.99 5 2 C4.67 2.66 4.34 3.32 4 4 C1.67843403 4.40729228 -0.6568787 4.74438677 -3 5 C-2.01 3.35 -1.02 1.7 0 0 Z " fill="#68B34A" transform="translate(305,275)"/>
<path d="M0 0 C0.33 0 0.66 0 1 0 C1 3.63 1 7.26 1 11 C0.01 10.34 -0.98 9.68 -2 9 C-1.34 6.03 -0.68 3.06 0 0 Z " fill="#42A33D" transform="translate(231,419)"/>
<path d="M0 0 C0.93065133 2.60582371 1.14917407 3.64198224 0.0625 6.25 C-0.4634375 7.11625 -0.4634375 7.11625 -1 8 C-1.33 6.68 -1.66 5.36 -2 4 C-2.99 4 -3.98 4 -5 4 C-3.35 2.68 -1.7 1.36 0 0 Z " fill="#56B147" transform="translate(279,410)"/>
<path d="M0 0 C2.31 0 4.62 0 7 0 C5.68 1.32 4.36 2.64 3 4 C2.01 3.34 1.02 2.68 0 2 C0 1.34 0 0.68 0 0 Z " fill="#AFDB5C" transform="translate(406,174)"/>
<path d="M0 0 C0.66 0 1.32 0 2 0 C1.50168276 3.68754757 0.89932357 5.60490662 -2 8 C-1.125 1.125 -1.125 1.125 0 0 Z " fill="#FDD44A" transform="translate(509,139)"/>
</svg>
